<svg width="8" height="13" viewBox="0 0 8 13" fill="none" xmlns="http://www.w3.org/2000/svg">
<path d="M7.66412 12.6794C7.88804 12.4656 8 12.1936 8 11.8632C8 11.5329 7.88804 11.2608 7.66412 11.0471L2.90076 6.5L7.66412 1.95291C7.88804 1.73916 8 1.46711 8 1.13677C8 0.806427 7.88804 0.534379 7.66412 0.320627C7.4402 0.106875 7.15522 0 6.80916 0C6.46311 0 6.17812 0.106875 5.9542 0.320627L0.335878 5.68386C0.213741 5.80045 0.127023 5.92676 0.0757256 6.06278C0.0252423 6.1988 0 6.34454 0 6.5C0 6.65546 0.0252423 6.8012 0.0757256 6.93722C0.127023 7.07324 0.213741 7.19955 0.335878 7.31614L5.9542 12.6794C6.17812 12.8931 6.46311 13 6.80916 13C7.15522 13 7.4402 12.8931 7.66412 12.6794Z" fill="white"/>
</svg>
