<svg width="8" height="13" viewBox="0 0 8 13" fill="none" xmlns="http://www.w3.org/2000/svg">
<path d="M0.335877 12.6794C0.111959 12.4656 0 12.1936 0 11.8632C0 11.5329 0.111959 11.2608 0.335877 11.0471L5.09924 6.5L0.335877 1.95291C0.111959 1.73916 0 1.46711 0 1.13677C0 0.806427 0.111959 0.534379 0.335877 0.320627C0.559796 0.106875 0.844783 0 1.19084 0C1.53689 0 1.82188 0.106875 2.0458 0.320627L7.66412 5.68386C7.78626 5.80045 7.87298 5.92676 7.92427 6.06278C7.97476 6.1988 8 6.34454 8 6.5C8 6.65546 7.97476 6.8012 7.92427 6.93722C7.87298 7.07324 7.78626 7.19955 7.66412 7.31614L2.0458 12.6794C1.82188 12.8931 1.53689 13 1.19084 13C0.844783 13 0.559796 12.8931 0.335877 12.6794Z" fill="white"/>
</svg>
