<svg width="29" height="28" viewBox="0 0 29 28" fill="none" xmlns="http://www.w3.org/2000/svg">
<path d="M9.29953 0.0838991C8.14438 0.293926 7.17593 0.801492 6.32998 1.65327C5.58322 2.40003 5.10482 3.22847 4.84229 4.24944C4.71978 4.71616 4.62643 5.93549 4.69644 6.20386C4.78978 6.5714 5.15733 6.69975 5.45487 6.46639C5.60072 6.34971 5.60656 6.32637 5.60656 5.75463C5.61239 3.80605 6.58668 2.20167 8.2669 1.39073C10.4547 0.328931 13.15 1.19238 14.3519 3.32765C14.7836 4.09775 14.9761 5.00203 14.9178 5.97633C14.8828 6.55973 14.7602 7.37651 14.7019 7.42901C14.6902 7.44068 14.6202 7.46985 14.5502 7.48735C14.4452 7.52236 14.4044 7.49319 14.3227 7.31817C14.1185 6.88061 13.5584 6.53056 13.0625 6.53056C12.3333 6.53056 11.674 5.87131 11.674 5.14789C11.674 4.89119 11.4523 4.66366 11.2073 4.66366C10.9622 4.66366 10.7406 4.89119 10.7406 5.14789C10.7406 5.47459 10.5714 5.86548 10.3205 6.11634C9.94712 6.48389 9.73125 6.53056 8.41859 6.53056C7.72433 6.53056 7.19343 6.55973 7.05924 6.60057C6.77337 6.68225 6.39416 7.00312 6.25414 7.27149L6.14913 7.48152L5.7174 7.48735C5.37319 7.49319 5.22151 7.52236 4.99398 7.64487C4.45141 7.91908 4.1597 8.47331 4.22971 9.1034C4.28222 9.6168 4.46891 10.0485 4.80145 10.4102C5.19817 10.842 5.52488 11.0286 6.14329 11.1628C6.25997 11.192 6.33582 11.2737 6.44666 11.5245C6.62169 11.9038 7.03007 12.493 7.29261 12.738C7.46763 12.9072 7.47346 12.9247 7.47346 13.4498C7.47346 13.9574 7.46763 13.9865 7.33928 14.0215C7.14092 14.0682 6.07328 15.1767 6.07328 15.34C6.07328 15.41 6.7442 17.6503 7.56097 20.3165C8.38358 22.9769 9.04867 25.1646 9.037 25.1705C9.0195 25.1821 7.12342 22.7785 5.96244 21.285L5.65323 20.8824L5.86326 20.0365C5.97994 19.5756 6.07328 19.138 6.07328 19.068C6.07328 18.9805 5.84575 18.7063 5.39653 18.2571L4.72561 17.5745L4.96481 16.5477C5.19234 15.5734 5.204 15.5151 5.11066 15.3459C4.9473 15.025 4.58559 15.0425 3.66964 15.4334C2.28696 16.011 0.991795 17.3353 0.466727 18.6888C0.0233363 19.8439 0.0408386 19.6048 0.0175023 23.8695L0 27.7083L0.145852 27.8541L0.291704 28H9.10701H17.9223L18.0623 27.8541C18.2374 27.685 18.249 27.4224 18.0973 27.2357L17.9865 27.0957L14.6202 27.0665L11.254 27.0374L13.5642 24.097C14.8361 22.481 15.8745 21.1099 15.8745 21.0458C15.8745 20.9874 15.7812 20.5674 15.6645 20.1123L15.4603 19.2897L16.1312 18.6071C16.6271 18.1112 16.808 17.8895 16.808 17.7845C16.8022 17.7087 16.7438 17.347 16.668 16.9852L16.5338 16.326L16.6563 16.3668C16.9889 16.466 17.7006 16.9852 18.2198 17.5103C18.8441 18.1346 18.9608 18.1871 19.235 17.9479C19.4742 17.7378 19.4508 17.5161 19.1416 17.1194C18.5466 16.3493 17.4848 15.6201 16.4638 15.2875C15.9737 15.1242 15.752 15.13 15.5945 15.2992C15.4312 15.4742 15.4312 15.5442 15.6529 16.641L15.8337 17.5628L15.157 18.2512C14.7077 18.7063 14.4744 18.9805 14.4744 19.068C14.4744 19.138 14.5677 19.5756 14.6844 20.0365L14.8944 20.8824L14.5852 21.285C13.4242 22.7785 11.5282 25.1821 11.5107 25.1705C11.499 25.1646 12.1641 22.9769 12.9867 20.3165C13.8034 17.6503 14.4744 15.41 14.4744 15.34C14.4744 15.1767 13.4067 14.0682 13.2084 14.0215C13.08 13.9865 13.0742 13.9574 13.0742 13.4498C13.0742 12.9247 13.08 12.9072 13.255 12.738C13.5176 12.493 13.926 11.9038 14.0952 11.5304C14.241 11.2212 14.2585 11.2037 14.5385 11.1453C15.4312 10.9528 16.0962 10.276 16.2829 9.3601C16.4171 8.72418 16.2363 8.1291 15.8104 7.79656L15.6295 7.65654L15.7345 7.07897C15.8804 6.30887 15.8804 4.92036 15.7404 4.34862C15.6003 3.78854 15.3786 3.25181 15.0636 2.70924C14.7019 2.08499 13.8501 1.22738 13.1967 0.824828C12.0532 0.124738 10.6005 -0.155298 9.29953 0.0838991ZM11.4815 6.8281C11.8432 7.16065 12.3799 7.39984 12.8758 7.44652C13.1792 7.47569 13.3075 7.51652 13.4067 7.6157C13.5351 7.74989 13.5409 7.77906 13.5409 8.91087C13.5409 10.2819 13.4942 10.6028 13.185 11.2445C12.7241 12.2013 11.8082 12.8664 10.7522 13.0181C9.38121 13.2164 8.0277 12.5338 7.39762 11.332C7.07091 10.7136 7.00674 10.3169 7.00674 8.94588C7.00674 7.8724 7.0184 7.75572 7.11758 7.63321C7.22843 7.49319 7.24593 7.49319 8.56444 7.46402L9.90044 7.43485L10.338 7.21899C10.5714 7.1023 10.8631 6.90978 10.9681 6.79893C11.0789 6.68225 11.1839 6.5889 11.1956 6.5889C11.2131 6.5889 11.3415 6.69392 11.4815 6.8281ZM5.96244 8.45581C6.06161 8.51415 6.07328 8.59 6.07328 9.33093C6.07328 10.2527 6.06745 10.2585 5.67657 9.97267C5.39069 9.76848 5.204 9.4301 5.15733 9.03922C5.12816 8.77669 5.13983 8.74168 5.30318 8.57833C5.48987 8.3858 5.74657 8.33913 5.96244 8.45581ZM15.2445 8.57833C15.4078 8.74168 15.4195 8.77669 15.3903 9.05089C15.3436 9.41844 15.1161 9.80932 14.8361 10.0018C14.4802 10.2469 14.4744 10.241 14.4744 9.33093C14.4744 8.43248 14.486 8.40331 14.8711 8.39747C15.0111 8.39747 15.1161 8.44414 15.2445 8.57833ZM8.76863 13.7123C9.17118 13.8698 9.8421 13.9982 10.2738 13.9982C10.7055 13.9982 11.3765 13.8698 11.779 13.7123C11.9482 13.6423 12.0999 13.5898 12.1116 13.5898C12.1291 13.5898 12.1407 13.8232 12.1407 14.109V14.6283L11.2248 15.3925C10.723 15.8126 10.2913 16.1568 10.2738 16.1568C10.2563 16.1568 9.8246 15.8126 9.32287 15.3925L8.40692 14.6283V14.109C8.40692 13.8232 8.41859 13.5898 8.43609 13.5898C8.44776 13.5898 8.59944 13.6423 8.76863 13.7123ZM8.55277 15.9759C9.03116 16.3727 9.44538 16.7169 9.46872 16.7344C9.52123 16.7811 7.91685 17.9304 7.84101 17.9012C7.81767 17.8895 7.63098 17.3586 7.43262 16.711L7.07091 15.5442L7.28094 15.3284C7.4618 15.1475 7.50847 15.1242 7.58431 15.1825C7.63682 15.2175 8.06854 15.5792 8.55277 15.9759ZM13.1092 16.7402C12.905 17.3995 12.7241 17.9362 12.7125 17.9362C12.6308 17.9362 11.0381 16.7694 11.0789 16.7344C11.1023 16.711 11.5515 16.3318 12.0766 15.8943L13.0333 15.1008L13.255 15.3225L13.4767 15.5442L13.1092 16.7402ZM3.89133 17.0319C3.80966 17.3878 3.73965 17.732 3.73965 17.802C3.73965 17.8837 3.97885 18.1637 4.4164 18.6071L5.08732 19.2897L4.8773 20.1298C4.76061 20.5907 4.6731 21.0224 4.68477 21.0866C4.70227 21.1508 5.72324 22.4926 6.95423 24.062C8.19106 25.6372 9.21785 26.9557 9.24703 26.9907C9.28203 27.049 8.7628 27.0665 6.75004 27.0665H4.20638V25.3455V23.6186L4.06052 23.4786C3.87383 23.2861 3.60546 23.2861 3.41877 23.4786L3.27292 23.6186V25.3455V27.0665H2.10027H0.933454L0.950956 23.6069C0.974292 19.6923 0.95679 19.8615 1.47019 18.7996C1.94275 17.8195 2.63117 17.0728 3.59963 16.5069C3.82133 16.3785 4.00802 16.2968 4.01968 16.3318C4.03135 16.361 3.97301 16.6819 3.89133 17.0319ZM10.6297 17.6212C10.8164 17.7553 10.9739 17.8779 10.9739 17.8954C10.9739 17.9129 10.8631 18.0937 10.7347 18.2979C10.5072 18.6421 10.478 18.6655 10.2738 18.6655C10.0696 18.6655 10.0405 18.6421 9.8071 18.2862C9.66708 18.0762 9.57373 17.8837 9.59707 17.8662C9.64958 17.8137 10.2388 17.3878 10.2622 17.382C10.2738 17.382 10.4372 17.4928 10.6297 17.6212ZM9.28203 19.313C9.28203 19.4881 8.99033 21.2441 8.94365 21.3725C8.90865 21.4483 8.78613 21.1099 8.52943 20.264C8.32524 19.5931 8.14438 19.0155 8.13272 18.9805C8.12105 18.9455 8.26106 18.8055 8.44192 18.6771L8.7803 18.4379L9.03116 18.8113C9.17118 19.0155 9.28203 19.243 9.28203 19.313ZM12.1582 18.7121C12.3099 18.823 12.4266 18.9455 12.4149 18.9805C12.4033 19.0155 12.2224 19.5931 12.0182 20.264C11.7615 21.1099 11.639 21.4483 11.604 21.3725C11.5573 21.2441 11.2656 19.4881 11.2656 19.313C11.2656 19.1497 11.744 18.4321 11.8199 18.4788C11.849 18.4963 12.0065 18.6013 12.1582 18.7121ZM10.3613 19.7273C10.4255 20.0248 10.9739 23.3969 10.9739 23.5194C10.9739 23.6828 10.3205 25.8414 10.2738 25.8414C10.2213 25.8414 9.57373 23.7119 9.57373 23.5369C9.57373 23.4027 10.1163 20.054 10.1863 19.7273C10.2038 19.6573 10.2447 19.5989 10.2738 19.5989C10.303 19.5989 10.3438 19.6573 10.3613 19.7273Z" fill="white"/>
<path d="M21.6211 16.9443C21.4869 17.0726 21.4753 17.131 21.4753 17.6444C21.4753 17.9477 21.4694 18.1986 21.4636 18.1986C20.9385 18.2745 20.4076 18.4203 19.8884 18.6362C19.1125 18.9629 18.5641 19.1262 18.2257 19.1262C17.9223 19.1321 17.3331 18.9512 17.1231 18.7879C17.0355 18.7237 16.8897 18.6653 16.8022 18.6653C16.493 18.6653 16.2538 19.0621 16.3938 19.3246C16.4871 19.4996 16.8372 19.733 17.1872 19.8613C17.3506 19.9197 17.4906 19.978 17.5023 19.9838C17.5139 19.9955 17.1464 20.8473 16.6913 21.8741L15.8571 23.7527L15.9212 24.1319C15.9971 24.5811 16.2538 25.1528 16.5163 25.4504C16.6213 25.5729 16.8955 25.7596 17.1464 25.8821C17.5781 26.098 17.6073 26.1038 18.2024 26.098C18.8616 26.0921 19.1125 26.028 19.5442 25.7596C20.0459 25.4387 20.4485 24.7328 20.5185 24.0385C20.5535 23.7177 20.5418 23.6885 19.7309 21.8566C19.2758 20.8414 18.9083 19.9955 18.9083 19.978C18.9083 19.9605 18.9666 19.9488 19.0308 19.9488C19.1008 19.9488 19.4975 19.803 19.9117 19.628C21.4053 18.9979 22.3796 18.9687 23.6806 19.5171C23.9606 19.6338 24.3573 19.7913 24.5673 19.8672C24.7949 19.9488 24.9407 20.0363 24.9291 20.0772C24.9174 20.118 24.5557 20.964 24.1181 21.9499L23.3189 23.7468L23.3889 24.161C23.488 24.7211 23.7156 25.1703 24.0773 25.5321C24.4507 25.8938 24.8824 26.0746 25.5008 26.1155C26.8018 26.2088 27.7411 25.462 27.9628 24.161L28.0328 23.7468L27.2044 21.8858C26.7493 20.859 26.3759 20.0072 26.3759 19.9838C26.3759 19.9663 26.4168 19.9488 26.4693 19.9488C26.6209 19.9488 27.1752 19.663 27.3619 19.4879C27.5894 19.2779 27.6011 19.0387 27.3969 18.817C27.2102 18.6187 26.9943 18.6245 26.6793 18.8404C26.1425 19.2021 25.4016 19.2137 24.5732 18.8637C23.7506 18.5136 23.2022 18.327 22.8988 18.2861C22.3796 18.2161 22.4087 18.2569 22.4087 17.6385C22.4087 17.131 22.3971 17.0726 22.2629 16.9443C22.1754 16.8509 22.0529 16.7984 21.942 16.7984C21.8312 16.7984 21.7086 16.8509 21.6211 16.9443ZM18.7858 22.0316C19.0775 22.7025 19.3167 23.2626 19.3167 23.2859C19.3167 23.3384 17.0997 23.3501 17.0997 23.2976C17.0997 23.2218 18.1732 20.8239 18.2082 20.8239C18.2315 20.8239 18.4882 21.3665 18.7858 22.0316ZM26.2476 22.0316C26.5451 22.7025 26.7843 23.2626 26.7843 23.2859C26.7843 23.3151 26.2884 23.3326 25.6758 23.3326C25.0691 23.3326 24.5673 23.3151 24.5673 23.2859C24.5673 23.2101 25.6408 20.8239 25.6758 20.8239C25.6933 20.8239 25.95 21.3665 26.2476 22.0316ZM19.4567 24.4527C19.1533 25.0595 18.4824 25.3279 17.7706 25.1353C17.4848 25.0537 17.1814 24.8378 17.0355 24.5928C16.8313 24.2602 16.808 24.2661 18.2374 24.2661H19.5559L19.4567 24.4527ZM26.9593 24.3302C26.9593 24.4352 26.8368 24.6394 26.6501 24.8378C26.2009 25.3045 25.1508 25.3045 24.7015 24.8378C24.5148 24.6394 24.3923 24.4352 24.3923 24.3302C24.3923 24.2836 24.8065 24.2661 25.6758 24.2661C26.5451 24.2661 26.9593 24.2836 26.9593 24.3302Z" fill="white"/>
<path d="M21.6211 20.2115L21.4753 20.3515V23.7119V27.0665H20.4543C19.445 27.0665 19.4275 27.0665 19.2875 27.2124C19.1941 27.2999 19.1416 27.4224 19.1416 27.5333C19.1416 27.6441 19.1941 27.7666 19.2875 27.8541L19.4275 28H21.942H24.4565L24.5965 27.8541C24.789 27.6675 24.789 27.3991 24.5965 27.2124C24.4565 27.0665 24.439 27.0665 23.4297 27.0665H22.4087V23.7119V20.3515L22.2629 20.2115C22.1754 20.1181 22.0528 20.0656 21.942 20.0656C21.8311 20.0656 21.7086 20.1181 21.6211 20.2115Z" fill="white"/>
</svg>
