<svg width="17" height="20" viewBox="0 0 17 20" fill="none" xmlns="http://www.w3.org/2000/svg">
<path d="M10 1.24258V4.96007C10 5.46411 10 5.71613 10.0981 5.90866C10.1844 6.078 10.3221 6.21568 10.4914 6.30197C10.6839 6.40006 10.936 6.40006 11.44 6.40006H15.1575M11.8 10.9H4.6M11.8 14.5H4.6M6.4 7.3H4.6M10 1H5.32C3.80786 1 3.05179 1 2.47423 1.29428C1.96619 1.55314 1.55314 1.96619 1.29428 2.47423C1 3.05179 1 3.80786 1 5.32V14.68C1 16.1921 1 16.9482 1.29428 17.5258C1.55314 18.0338 1.96619 18.4469 2.47423 18.7057C3.05179 19 3.80786 19 5.32 19H11.08C12.5921 19 13.3482 19 13.9258 18.7057C14.4338 18.4469 14.8469 18.0338 15.1057 17.5258C15.4 16.9482 15.4 16.1921 15.4 14.68V6.4L10 1Z" stroke="white" stroke-width="2" stroke-linecap="round" stroke-linejoin="round"/>
</svg>
