<svg width="32" height="28" viewBox="0 0 32 28" fill="none" xmlns="http://www.w3.org/2000/svg">
<path d="M10.6658 0.0873371C9.60743 0.255136 8.4522 0.668179 7.5293 1.21675C6.62577 1.75242 5.6448 2.86892 5.36728 3.6821C5.19948 4.15323 5.20594 5.88284 5.37374 6.50886C5.45764 6.8251 5.49636 7.33495 5.53508 8.60635C5.5738 10.1682 5.59317 10.3231 5.75451 10.8652C5.97394 11.588 6.36762 12.3495 6.80648 12.8981C7.013 13.1498 7.13562 13.3563 7.10981 13.4144C7.09045 13.4661 6.98718 13.7436 6.88392 14.034L6.69031 14.5567L6.19337 14.5955C4.2056 14.7504 2.25655 16.1186 1.28848 18.0353C0.56566 19.4616 0.197794 21.714 0.0429025 25.625C-0.0409968 27.6386 -0.0216354 27.787 0.281693 27.929C0.397861 27.9806 3.21817 28 10.7046 28H20.9661L21.121 27.8387C21.2759 27.6902 21.2823 27.6515 21.2823 26.7931C21.2823 25.6831 21.1791 23.8115 21.0565 22.5659C20.8048 20.0812 20.3594 18.4871 19.6237 17.3706C19.2946 16.8672 18.5008 16.0411 18.0232 15.7055C17.1906 15.1118 16.0741 14.6923 15.0932 14.589L14.6156 14.5438L14.3961 13.9372L14.1832 13.337L14.3703 13.1175C14.9641 12.4464 15.3965 11.6009 15.6482 10.6393C15.7902 10.1036 15.816 9.84547 15.8418 8.57408L15.8741 7.12197L16.3 6.26362L16.7324 5.40526V4.74698C16.7324 4.12096 16.7195 4.06287 16.4936 3.60466C16.1903 2.98509 15.8999 2.61077 15.39 2.20418C15.048 1.92667 14.9576 1.81695 14.8285 1.46845C14.5962 0.868246 14.1444 0.429388 13.5894 0.26159C12.7246 -0.00946984 11.6597 -0.0740078 10.6658 0.0873371ZM12.8924 1.09413C13.5378 1.2232 13.6604 1.31356 13.9057 1.85568C14.0928 2.27517 14.2154 2.43652 14.7576 2.95928C15.8482 4.0177 16.0096 4.61145 15.4933 5.68923L15.2158 6.26362L14.977 6.07C14.8415 5.96674 14.6737 5.81185 14.6027 5.73441C14.3574 5.46335 14.2413 5.46335 13.512 5.74086C12.318 6.18617 11.8404 6.27653 10.6658 6.27653C9.76877 6.27007 9.54934 6.25071 9.00722 6.10227C8.66517 6.01192 8.12951 5.81831 7.81972 5.67632C7.50994 5.52789 7.20661 5.41172 7.13562 5.41172C7.06463 5.41172 6.85166 5.56016 6.65804 5.74732C6.46443 5.92802 6.29018 6.0571 6.27081 6.03774C6.25145 6.01837 6.22564 5.58597 6.22564 5.07612C6.21273 4.19195 6.21918 4.14032 6.38698 3.79827C6.98719 2.59141 8.32312 1.66852 10.1689 1.18448C11.0337 0.965053 12.0341 0.932784 12.8924 1.09413ZM8.68453 7.02517C10.227 7.43176 11.9437 7.3414 13.5313 6.77992L14.0735 6.58631L14.4607 6.91545L14.8415 7.25105L14.8156 8.73542C14.7898 10.2004 14.7898 10.2262 14.5898 10.7877C14.3122 11.5751 14.0412 12.0075 13.441 12.6142C12.6213 13.4402 11.7824 13.8146 10.7304 13.8146C9.62033 13.821 8.72971 13.4531 7.92299 12.64C6.83875 11.5493 6.50315 10.5683 6.50315 8.46436V7.25105L6.89683 6.88964L7.29697 6.52822L7.75519 6.71538C8.00043 6.81865 8.41993 6.95417 8.68453 7.02517ZM8.56836 14.305C9.19438 14.6084 9.67196 14.7504 10.3303 14.8084C11.1628 14.8794 12.2728 14.6277 13.0538 14.1824L13.3829 14.0017L13.5313 14.4212C13.6152 14.6536 13.6604 14.8665 13.6281 14.8923C13.5959 14.9246 12.8924 15.4151 12.0663 15.983L10.5561 17.0221L9.83976 16.4993C9.43963 16.2089 8.78134 15.7249 8.37475 15.428C7.96816 15.1311 7.63902 14.8536 7.65193 14.8084C7.72937 14.5245 7.9488 13.9953 7.98107 14.0146C8.00043 14.0211 8.26504 14.1566 8.56836 14.305ZM8.26504 16.5574C9.03304 17.1189 9.66551 17.5965 9.66551 17.6158C9.66551 17.6417 9.4719 17.7901 9.23311 17.9579C8.98786 18.1192 8.7168 18.3129 8.61999 18.3838L8.4522 18.5129L7.12917 17.0802L5.79969 15.641L6.00621 15.6023C6.12238 15.5764 6.36117 15.5571 6.54187 15.5506C6.86456 15.5442 6.87747 15.5506 8.26504 16.5574ZM15.2029 15.6023C15.2674 15.641 14.9512 16.0282 13.9831 17.0802L12.673 18.5065L12.047 18.0741C11.7049 17.8353 11.4338 17.6288 11.4468 17.6158C11.4597 17.5965 12.1373 17.1254 12.944 16.5703C14.4026 15.5571 14.409 15.5506 14.764 15.5442C14.9576 15.5442 15.1577 15.57 15.2029 15.6023ZM16.8163 16.1186C17.765 16.5961 18.6492 17.4997 19.1268 18.4807C19.585 19.4294 19.8819 20.7524 20.0884 22.7402C20.1852 23.6824 20.3143 25.909 20.3143 26.6576V27.0319H18.9267H17.5391V24.3601V21.6817L17.3907 21.5075C17.21 21.2945 16.9002 21.2687 16.7001 21.4494C16.5775 21.5591 16.5711 21.6559 16.5582 24.2826L16.5388 26.9997L14.5639 27.019L12.5891 27.0319L12.5504 26.7931C12.531 26.6576 12.3374 25.1022 12.118 23.3404L11.7243 20.1328L11.9179 19.7456L12.118 19.3584L12.4342 19.5262C12.7569 19.6875 12.7569 19.6875 12.9569 19.5713C13.0602 19.5004 13.8798 18.6549 14.764 17.6868C15.6546 16.7252 16.3968 15.9314 16.4162 15.9314C16.4291 15.9314 16.6098 16.0153 16.8163 16.1186ZM6.43216 17.7772C7.32924 18.7517 8.13596 19.5778 8.21986 19.6101C8.39411 19.6811 8.52319 19.6423 8.77489 19.4681C8.86524 19.4035 8.96205 19.3519 8.98141 19.3519C9.00722 19.3519 9.10403 19.5197 9.20729 19.7327L9.38154 20.1135L9.10403 22.3917C8.94914 23.6501 8.75552 25.1991 8.67808 25.838L8.5361 26.9997L6.65159 27.019L4.76063 27.0319V24.3601V21.6817L4.61219 21.5075C4.43148 21.2945 4.1217 21.2687 3.92163 21.4494C3.79901 21.5591 3.79256 21.6559 3.77965 24.2826L3.76029 26.9997L2.37918 27.019L0.998064 27.0319L1.03679 25.5669C1.12714 22.1787 1.50146 19.8618 2.19202 18.4484C2.48889 17.8417 2.5857 17.7062 3.17299 17.1254C3.74738 16.551 4.52184 15.9959 4.72836 15.9959C4.76708 15.9959 5.53508 16.7962 6.43216 17.7772ZM10.9369 18.4936C11.1241 18.6226 11.279 18.7517 11.279 18.7775C11.279 18.8098 11.2015 18.9905 11.1047 19.1906L10.9305 19.5455H10.569H10.2076L10.0205 19.1583C9.9043 18.9195 9.85912 18.7453 9.89785 18.713C10.0269 18.5839 10.4722 18.2612 10.5303 18.2612C10.5626 18.2548 10.7433 18.358 10.9369 18.4936ZM10.7691 20.5265C10.8014 20.6233 11.5758 26.948 11.5565 26.9803C11.5177 27.0513 9.53643 27.0448 9.53643 26.9738C9.53643 26.9416 9.71069 25.5088 9.92366 23.7857C10.1366 22.0625 10.3109 20.6233 10.3109 20.5846C10.3109 20.5265 10.7497 20.4749 10.7691 20.5265Z" fill="white"/>
<path d="M24.335 2.31384C24.1026 2.41065 24.0575 2.59135 24.0575 3.4368C24.0575 4.16608 24.0704 4.26288 24.1865 4.37905C24.3802 4.57267 24.7222 4.55331 24.89 4.34033C25.0126 4.18544 25.0255 4.08218 25.0255 3.40453C25.0255 2.70752 25.0126 2.63007 24.8836 2.48164C24.7093 2.29448 24.5286 2.23639 24.335 2.31384Z" fill="white"/>
<path d="M20.979 3.21722C20.8112 3.28176 20.7015 3.46892 20.7015 3.6819C20.7015 3.90133 21.4179 5.10173 21.6179 5.2179C21.7728 5.3018 21.8116 5.3018 22.0116 5.20499C22.2698 5.08237 22.373 4.80486 22.2504 4.55961C21.9471 3.96586 21.4953 3.28176 21.3662 3.22368C21.1855 3.13978 21.1662 3.13978 20.979 3.21722Z" fill="white"/>
<path d="M27.6716 3.23693C27.4522 3.34664 26.7681 4.53414 26.7681 4.81165C26.7681 4.95364 26.8197 5.0569 26.9359 5.14725C27.2973 5.43122 27.5038 5.28923 27.9878 4.45024C28.2073 4.06947 28.3815 3.70805 28.3815 3.64351C28.3815 3.51444 28.0459 3.15303 27.9168 3.15303C27.8717 3.15303 27.762 3.19175 27.6716 3.23693Z" fill="white"/>
<path d="M23.9929 5.21792C23.0249 5.347 22.231 5.74713 21.5405 6.44414C20.6692 7.32186 20.2691 8.37383 20.3272 9.60005C20.3788 10.5875 20.695 11.3748 21.405 12.2719C21.5405 12.4397 21.6954 12.7301 21.7535 12.9173C21.818 13.1303 21.9471 13.3432 22.0891 13.4788C22.231 13.6143 22.3149 13.7627 22.3149 13.8596C22.3214 14.0854 22.515 14.5049 22.7473 14.776C22.87 14.9115 22.9668 15.131 23.0184 15.3697C23.2249 16.3314 24.2188 16.8477 25.1417 16.4798C25.6257 16.2862 26.0581 15.6537 26.0581 15.1439C26.0581 15.0535 26.142 14.9115 26.2582 14.7954C26.5035 14.563 26.6067 14.3694 26.71 13.9564C26.7552 13.7757 26.8649 13.5691 26.9617 13.4788C27.0585 13.3884 27.2005 13.1432 27.2779 12.9302C27.3554 12.7172 27.5748 12.3365 27.7684 12.0912C28.4525 11.1877 28.7107 10.4584 28.7107 9.41289C28.7107 8.62553 28.6138 8.18021 28.2653 7.47675C27.9362 6.7991 27.123 5.98592 26.4454 5.65678C25.6645 5.26955 24.7609 5.10821 23.9929 5.21792ZM25.2837 6.25698C26.1227 6.4506 27.0133 7.15406 27.3941 7.92852C27.6522 8.45773 27.7297 8.80623 27.7361 9.41289C27.7361 10.239 27.5361 10.7746 26.9165 11.5814C26.7229 11.8395 26.5099 12.2009 26.4389 12.3881C26.3615 12.5817 26.2711 12.756 26.2324 12.7818C26.1872 12.8076 25.9033 12.8334 25.5935 12.8334H25.0255V11.6136V10.3939L25.445 10.1293C26.0259 9.76139 26.1162 9.56133 25.8452 9.24509C25.6322 8.99985 25.374 9.01275 24.8965 9.30963L24.5092 9.54842L24.3156 9.41289C24.2124 9.3419 23.9929 9.21927 23.8316 9.14828C23.5799 9.03857 23.5153 9.03211 23.3669 9.10311C23.012 9.2709 23.0055 9.78721 23.354 9.98082C23.4637 10.0389 23.6702 10.168 23.8058 10.2712L24.0575 10.4455L24.0446 11.6265L24.0252 12.8011L23.5089 12.8205C22.9151 12.8399 22.7022 12.8011 22.7022 12.6785C22.7022 12.4849 22.4505 12.0073 22.1213 11.5878C20.9726 10.0776 21.0177 8.38028 22.244 7.14761C22.6893 6.70229 23.0184 6.49577 23.6057 6.30861C24.0058 6.17954 24.8319 6.15372 25.2837 6.25698ZM25.7355 13.8531C25.7355 13.8789 25.6903 13.9628 25.6386 14.0338C25.4773 14.2726 25.2191 14.3307 24.4253 14.3049C23.6509 14.2855 23.5089 14.2339 23.3411 13.9176C23.283 13.8079 23.354 13.8015 24.5092 13.8015C25.1804 13.8015 25.7355 13.8208 25.7355 13.8531ZM24.9868 15.3826C24.8965 15.615 24.3866 15.6924 24.1736 15.4988C23.98 15.3246 24.0381 15.2858 24.5415 15.2858C24.9481 15.2858 25.0126 15.2987 24.9868 15.3826Z" fill="white"/>
<path d="M18.5072 5.6892C18.3136 5.78601 18.2168 6.03771 18.2749 6.27004C18.3265 6.49592 19.5269 7.21875 19.8496 7.21875C20.2497 7.21875 20.4627 6.76053 20.2045 6.4572C20.0819 6.32167 18.8492 5.6053 18.7331 5.6053C18.7008 5.6053 18.5975 5.64402 18.5072 5.6892Z" fill="white"/>
<path d="M29.8917 5.80539C28.9236 6.3217 28.6526 6.56694 28.7429 6.85091C28.8849 7.32203 29.2076 7.33494 29.9756 6.89608C30.5887 6.54113 30.834 6.3217 30.834 6.11517C30.834 5.96028 30.5048 5.60533 30.3628 5.60533C30.3112 5.60533 30.0982 5.69568 29.8917 5.80539Z" fill="white"/>
<path d="M17.623 9.02591C17.3391 9.14208 17.2552 9.58094 17.4746 9.80037C17.5908 9.91654 17.6876 9.92944 18.4685 9.92944C19.3268 9.92944 19.3397 9.92944 19.4688 9.76164C19.6882 9.48413 19.6366 9.20662 19.3397 9.05818C19.1332 8.94847 17.8683 8.92911 17.623 9.02591Z" fill="white"/>
<path d="M29.6465 9.0969C29.4335 9.2647 29.4141 9.60675 29.6077 9.80037C29.7239 9.91654 29.8207 9.92944 30.5952 9.92944C31.5374 9.92944 31.6149 9.90363 31.7052 9.52931C31.7439 9.38732 31.7117 9.31633 31.5568 9.15499L31.3632 8.96137H30.5887C29.9046 8.96137 29.8013 8.97428 29.6465 9.0969Z" fill="white"/>
<path d="M19.0881 12.0334C18.3072 12.4916 18.2491 12.5497 18.2491 12.8143C18.2491 13.0853 18.4427 13.2854 18.7073 13.2854C18.9138 13.2854 20.0755 12.6529 20.2368 12.4593C20.4434 12.1947 20.1852 11.672 19.8496 11.672C19.7657 11.672 19.4237 11.8333 19.0881 12.0334Z" fill="white"/>
<path d="M28.9817 11.7492C28.9043 11.7879 28.8075 11.8977 28.7687 11.9945C28.6397 12.3107 28.7881 12.4979 29.5109 12.9109C30.2531 13.3433 30.4919 13.382 30.6984 13.1174C30.9824 12.756 30.8404 12.5495 30.0014 12.0655C29.285 11.6589 29.2205 11.633 28.9817 11.7492Z" fill="white"/>
</svg>
