<svg width="28" height="28" viewBox="0 0 28 28" fill="none" xmlns="http://www.w3.org/2000/svg">
<path d="M13.6613 0.141122C13.5258 0.270961 13.5201 0.299187 13.5201 1.12902C13.5201 1.95886 13.5258 1.98709 13.6613 2.11693C13.7459 2.20725 13.8645 2.25806 13.9718 2.25806C14.079 2.25806 14.1976 2.20725 14.2822 2.11693C14.4177 1.98709 14.4234 1.95886 14.4234 1.12902C14.4234 0.299187 14.4177 0.270961 14.2822 0.141122C14.1976 0.0507998 14.079 -6.65337e-06 13.9718 -6.65337e-06C13.8645 -6.65337e-06 13.7459 0.0507998 13.6613 0.141122Z" fill="white"/>
<path d="M9.74918 1.73308C9.63064 1.77824 9.5008 2.08308 9.54031 2.21856C9.59677 2.39356 10.6863 3.48308 10.85 3.52824C11.0024 3.56211 11.2903 3.43227 11.3411 3.30243C11.3581 3.25163 11.375 3.13308 11.375 3.03711C11.375 2.89034 11.279 2.76614 10.7935 2.27501C10.2742 1.7613 10.1839 1.69356 10.0145 1.69921C9.90725 1.69921 9.7887 1.71614 9.74918 1.73308Z" fill="white"/>
<path d="M17.15 2.27495C16.6645 2.76608 16.5685 2.89028 16.5685 3.03705C16.5685 3.13302 16.5855 3.25157 16.6024 3.30237C16.6532 3.43221 16.9468 3.56769 17.0935 3.52818C17.2685 3.47173 18.3581 2.38221 18.4032 2.2185C18.4371 2.06608 18.3073 1.77818 18.1774 1.72737C18.1266 1.71044 18.0081 1.6935 17.9121 1.6935C17.7653 1.6935 17.6411 1.78947 17.15 2.27495Z" fill="white"/>
<path d="M13.7234 3.229C13.6669 3.26287 13.3677 3.8048 13.0572 4.43706C12.7524 5.06932 12.4814 5.58867 12.4589 5.58867C12.4363 5.58867 11.8887 5.66771 11.2339 5.76367C9.89596 5.95561 9.77741 6.00642 9.74919 6.35077C9.73225 6.55964 9.74919 6.58222 10.6637 7.47416L11.5952 8.38303L11.375 9.62496C11.2339 10.4379 11.1774 10.9064 11.2056 10.9854C11.2677 11.1379 11.4766 11.2903 11.629 11.2903C11.6911 11.2903 12.2443 11.025 12.8597 10.7032L13.9774 10.1161L15.0895 10.7032C15.6992 11.025 16.2524 11.2903 16.3145 11.2903C16.4556 11.2903 16.6589 11.1548 16.7379 11.0024C16.7831 10.9233 16.7492 10.6016 16.5968 9.74916C16.4895 9.1169 16.3992 8.54674 16.3992 8.47899C16.3992 8.39432 16.6927 8.0669 17.3024 7.47416C18.1548 6.63867 18.2056 6.57658 18.2056 6.37335C18.2056 6.01771 18.0927 5.97254 16.8169 5.7919C16.196 5.70722 15.6371 5.6169 15.5693 5.59996C15.4734 5.57174 15.304 5.28383 14.8806 4.42013C14.5476 3.74835 14.271 3.25722 14.2032 3.22335C14.0621 3.14432 13.8589 3.14432 13.7234 3.229ZM14.3952 5.48142C14.6153 5.92174 14.8411 6.31125 14.9032 6.35641C14.9653 6.39593 15.4169 6.48625 15.9081 6.55964L16.7943 6.68948L16.1169 7.3669C15.5524 7.93141 15.4395 8.07254 15.4395 8.21367C15.4395 8.30964 15.5016 8.73867 15.575 9.17335C15.6484 9.60803 15.7048 9.96932 15.6935 9.98061C15.6879 9.98625 15.3435 9.81125 14.9258 9.58545C14.3839 9.29754 14.1129 9.17899 13.9718 9.18464C13.8363 9.18464 13.5314 9.31448 13.0177 9.59109C12.6056 9.81125 12.2556 9.98625 12.25 9.98061C12.2387 9.96932 12.2952 9.60803 12.3685 9.17335C12.4419 8.73867 12.504 8.30399 12.504 8.21367C12.504 8.07254 12.3968 7.93141 11.8266 7.3669L11.1492 6.68948L12.0073 6.56529C12.4814 6.49754 12.9274 6.41287 12.9952 6.38464C13.0855 6.34512 13.2548 6.05722 13.5314 5.504C13.7572 5.05238 13.9548 4.68545 13.9718 4.68545C13.9887 4.68545 14.1806 5.04674 14.3952 5.48142Z" fill="white"/>
<path d="M4.05887 7.28226C3.68064 7.33871 3.66371 7.35 3.5 7.68306C3.42097 7.83548 3.325 7.95967 3.28548 7.95967C3.25161 7.95967 3.08226 8.02742 2.9129 8.1008C2.61371 8.24193 2.60242 8.24193 2.32581 8.15161C2.07177 8.06693 2.02661 8.06693 1.86855 8.14596C1.62581 8.25887 1.07823 8.76693 0.925806 9.01532C0.807258 9.20161 0.807258 9.24112 0.869355 9.5629C0.931451 9.88467 0.925806 9.92983 0.795967 10.246C0.688709 10.5056 0.609677 10.6129 0.451613 10.7032C0.0225806 10.9516 0 11.0024 0 11.6742C0 12.4758 0.0225806 12.5492 0.36129 12.7298C0.609677 12.8653 0.649193 12.9218 0.790322 13.2718C0.931451 13.6331 0.937096 13.6839 0.869355 13.9323C0.835484 14.0847 0.818548 14.271 0.835484 14.3443C0.880645 14.525 1.64274 15.2927 1.87419 15.3887C2.02097 15.4508 2.09435 15.4508 2.32581 15.3831C2.59677 15.304 2.61371 15.304 2.99193 15.4621C3.325 15.6032 3.39839 15.6597 3.5 15.8629C3.675 16.2073 3.79355 16.2524 4.52177 16.2581C5.23306 16.2581 5.35726 16.2073 5.55484 15.8121C5.64516 15.6371 5.72419 15.5806 6.05161 15.4564C6.42419 15.3097 6.45242 15.304 6.70645 15.3831C7.06209 15.4903 7.175 15.4395 7.65484 14.9823C8.1629 14.4855 8.23629 14.3274 8.12903 13.9661C8.05 13.7064 8.05564 13.6782 8.20242 13.3056C8.32661 12.9839 8.38871 12.8992 8.55242 12.8145C8.93629 12.6226 8.9758 12.5323 8.99274 11.8435C9.02096 11.0871 8.97016 10.9347 8.6258 10.7597C8.40564 10.6524 8.35484 10.5847 8.20806 10.246C8.05 9.86774 8.05 9.8508 8.12903 9.57983C8.19677 9.34838 8.19677 9.275 8.13467 9.12822C8.03871 8.90242 7.25967 8.14596 7.07903 8.1008C7.00564 8.08387 6.81935 8.10645 6.67258 8.15161C6.4129 8.23064 6.38468 8.225 6.10806 8.09516C5.94435 8.02177 5.78629 7.95967 5.74677 7.95967C5.7129 7.95967 5.61129 7.83548 5.52661 7.68306C5.43629 7.51371 5.31774 7.37822 5.22742 7.34435C5.0129 7.25967 4.39193 7.2258 4.05887 7.28226ZM4.92822 8.40564C5.06935 8.63709 5.14274 8.69919 5.34597 8.75C5.48145 8.78387 5.76371 8.89113 5.97258 8.98709C6.33387 9.15645 6.36774 9.16209 6.64435 9.09435C6.93226 9.03225 6.94355 9.03225 7.10161 9.19596C7.26532 9.35403 7.26532 9.35967 7.19193 9.64193C7.12419 9.91854 7.12984 9.94677 7.29355 10.3137C7.38951 10.5226 7.50806 10.8161 7.55887 10.9573C7.6379 11.1718 7.7 11.2452 7.90322 11.3524C8.14596 11.4823 8.15725 11.4992 8.15725 11.7419C8.15725 11.9847 8.14596 12.0016 7.90322 12.1314C7.7 12.2387 7.6379 12.3121 7.55887 12.5266C7.50806 12.6677 7.38951 12.9613 7.29355 13.1702C7.12984 13.5371 7.12419 13.5653 7.19193 13.8419C7.26532 14.1242 7.26532 14.1242 7.09597 14.2935C6.92661 14.4629 6.92661 14.4629 6.64435 14.3895C6.36774 14.3218 6.34516 14.3274 5.97258 14.4968C5.76371 14.5927 5.48145 14.7 5.34597 14.7339C5.14274 14.7847 5.06935 14.8468 4.92822 15.0782C4.76451 15.3379 4.73629 15.3548 4.52177 15.3548C4.3129 15.3548 4.27339 15.3323 4.09274 15.0895C3.92903 14.8637 3.83306 14.796 3.5 14.6774C3.28548 14.5927 3.02016 14.4855 2.9129 14.429C2.72661 14.3274 2.45564 14.3274 2.21855 14.4234C2.06613 14.4855 1.75564 14.1468 1.80081 13.9831C1.91935 13.5992 1.90242 13.4637 1.69919 13.0403C1.58629 12.8089 1.49597 12.5774 1.49597 12.5266C1.49597 12.4081 1.25323 12.1653 1.04435 12.0806C0.891935 12.0185 0.875 11.9847 0.875 11.7363C0.875 11.5161 0.89758 11.4597 0.987903 11.4314C1.21935 11.3581 1.43387 11.1153 1.52984 10.8218C1.58064 10.6581 1.6879 10.404 1.76129 10.2516C1.90242 9.975 1.91371 9.7379 1.80645 9.47258C1.74435 9.32016 2.08306 9.00967 2.24677 9.05483C2.59677 9.16209 2.77742 9.15645 3.02581 9.03225C3.16129 8.95887 3.42661 8.84596 3.6129 8.78387C3.9008 8.68225 3.97984 8.62016 4.12097 8.4C4.27903 8.15725 4.30726 8.13467 4.52177 8.13467C4.74193 8.12903 4.76451 8.14596 4.92822 8.40564Z" fill="white"/>
<path d="M4.01931 9.70954C3.40963 9.8676 2.88463 10.3079 2.60237 10.895C2.44995 11.2168 2.42737 11.3184 2.43302 11.7418C2.43302 12.3571 2.61366 12.7805 3.03705 13.1982C3.47173 13.6273 3.88947 13.7966 4.48785 13.7966C4.9056 13.7966 5.01285 13.7741 5.33463 13.6273C5.80318 13.4071 6.15318 13.0571 6.37334 12.5886C6.52011 12.2724 6.54269 12.1595 6.54269 11.7418C6.54834 11.3184 6.52576 11.2168 6.37334 10.895C6.03463 10.1837 5.37414 9.72647 4.61769 9.68131C4.40882 9.67002 4.13785 9.68131 4.01931 9.70954ZM5.06931 10.737C5.97818 11.2394 5.7806 12.5999 4.75318 12.8765C3.99673 13.0797 3.20076 12.3515 3.3306 11.5781C3.47173 10.7539 4.33543 10.3361 5.06931 10.737Z" fill="white"/>
<path d="M22.6089 7.31037C20.9436 7.65472 19.6903 8.77247 19.154 10.387C18.9903 10.8781 18.979 10.991 18.9734 11.6854C18.9677 12.7241 19.154 13.3959 19.6734 14.1862C20.3113 15.1684 21.1976 15.8007 22.4113 16.1338C22.8968 16.2692 24.0879 16.2636 24.5847 16.1225C25.1605 15.9588 25.8379 15.6144 26.2895 15.2475C28.0847 13.8023 28.4968 11.2168 27.2323 9.28617C26.2387 7.76198 24.3532 6.95472 22.6089 7.31037ZM24.2065 8.21359C25.5895 8.50714 26.6903 9.62488 26.9782 11.0249C27.0911 11.5668 27.0911 11.9168 26.9782 12.4644C26.8089 13.3055 26.346 14.0507 25.6968 14.5418C24.9629 15.0894 24.3194 15.3152 23.4556 15.3152C22.8403 15.3152 22.3605 15.2079 21.8524 14.9483C20.6669 14.3499 19.9387 13.2547 19.8597 11.9394C19.7976 10.895 20.1645 9.94666 20.9097 9.2015C21.8016 8.31521 22.9984 7.95392 24.2065 8.21359Z" fill="white"/>
<path d="M23.1452 8.7217C23.0379 8.82331 23.004 8.91928 23.004 9.10557V9.3596L22.75 9.39347C22.4056 9.44992 21.9992 9.73783 21.7903 10.0709C21.6379 10.3193 21.621 10.3983 21.621 10.7822C21.621 11.1661 21.6379 11.2451 21.7903 11.4878C22.0048 11.8322 22.321 12.058 22.7105 12.1483L23.004 12.2217V12.7128C23.004 12.9951 22.9815 13.2096 22.9476 13.2096C22.9194 13.2096 22.7669 13.0967 22.6089 12.9556C22.2927 12.679 22.2306 12.662 21.9879 12.7862C21.8073 12.8822 21.7282 13.0741 21.7847 13.2886C21.8637 13.6104 22.3661 14.0112 22.7952 14.0846C22.9984 14.1241 23.004 14.1298 23.004 14.3781C23.004 14.5644 23.0379 14.6604 23.1452 14.762C23.4556 15.0781 23.9073 14.8467 23.9073 14.3781V14.1241L24.1613 14.0902C24.5056 14.0338 24.9121 13.7459 25.121 13.4128C25.2734 13.1644 25.2903 13.0854 25.2903 12.7015C25.2903 12.3177 25.2734 12.2386 25.121 11.9959C24.9065 11.6515 24.5903 11.4257 24.2065 11.3354L23.9073 11.262V10.7709C23.9073 10.4886 23.9298 10.2741 23.9637 10.2741C23.9919 10.2741 24.1444 10.387 24.3024 10.5281C24.4774 10.6862 24.6411 10.7822 24.7315 10.7822C24.9234 10.7822 25.1492 10.5451 25.1492 10.3475C25.1492 9.98621 24.6976 9.55154 24.1895 9.4217L23.9073 9.34831V9.10557C23.9073 8.79509 23.721 8.58057 23.4556 8.58057C23.3484 8.58057 23.2298 8.63138 23.1452 8.7217ZM23.004 10.8104C23.004 11.1152 22.9815 11.2902 22.9419 11.2902C22.8347 11.2902 22.5524 10.9628 22.5524 10.8386C22.5524 10.6919 22.6936 10.404 22.7895 10.3701C22.9871 10.2911 23.004 10.3249 23.004 10.8104ZM24.1952 12.3572C24.3081 12.4701 24.3589 12.5773 24.3589 12.7015C24.3589 12.8765 24.1048 13.2096 23.9694 13.2096C23.9298 13.2096 23.9073 13.029 23.9073 12.7015C23.9073 12.3741 23.9298 12.1935 23.9694 12.1935C24.0032 12.1935 24.1048 12.2669 24.1952 12.3572Z" fill="white"/>
<path d="M13.2548 13.6331C12.4645 13.8081 11.5952 14.4573 11.2282 15.1629C10.9177 15.75 10.8387 16.0605 10.8387 16.7097C10.8387 17.1387 10.8669 17.3871 10.946 17.6129C11.2452 18.4992 11.7984 19.154 12.5774 19.5323C12.8314 19.6565 13.0234 19.7581 13.0008 19.7581C12.9782 19.7581 12.6621 19.7186 12.2952 19.6734C10.8387 19.4815 10.0992 19.2613 7.64919 18.3016C6.05726 17.6806 5.96694 17.6468 5.56048 17.6468C5.21048 17.6468 5.08629 17.6694 4.84919 17.7936C4.09274 18.1887 3.83307 19.0637 4.23952 19.8202C4.32419 19.9782 4.47097 20.1589 4.56694 20.2266C4.65726 20.2944 5.91613 20.9492 7.36129 21.6774L9.99193 23.004L10.0089 23.2919C10.0202 23.45 9.95806 24.4492 9.87903 25.5161C9.8 26.5774 9.7379 27.5089 9.7379 27.5879C9.7379 27.7629 9.975 28 10.1556 28C10.2347 28 10.3645 27.9435 10.4492 27.8702L10.6016 27.7403L10.771 25.4258C10.9573 22.8516 10.9573 22.829 10.6073 22.4226C10.4323 22.2137 10.0653 22.0161 7.76774 20.8645C6.31694 20.1363 5.09758 19.504 5.05806 19.4532C5.01855 19.4081 4.97339 19.2726 4.95645 19.1484C4.93387 18.9734 4.95645 18.9 5.08065 18.7532C5.35161 18.4315 5.44758 18.4484 6.94919 19.0242C9.17339 19.8823 9.61935 20.0403 10.3927 20.2379C12.8202 20.8645 15.3661 20.8419 17.7935 20.1758C18.1774 20.0742 19.3629 19.6508 20.4242 19.2444C22.2758 18.5331 22.3548 18.5048 22.5637 18.5669C22.9702 18.6911 23.1226 19.1879 22.8516 19.4927C22.7952 19.5548 21.5871 20.1815 20.1645 20.8927C18.7363 21.5984 17.4943 22.2476 17.404 22.3379C17.1443 22.5806 17.0202 22.8911 17.0202 23.3202C17.0202 23.5234 17.0823 24.5395 17.1613 25.5726C17.2403 26.6056 17.3024 27.5145 17.3024 27.5879C17.3024 27.7742 17.5452 28 17.7427 28C17.8331 28 17.9742 27.9492 18.0589 27.8815C18.2452 27.7347 18.2452 27.7347 18.0589 25.1605C17.9121 23.1847 17.9121 23.1395 18.0137 23.021C18.0758 22.9589 19.2895 22.3266 20.7121 21.6153C22.1403 20.9097 23.3766 20.2548 23.4726 20.1702C23.8903 19.775 24.0371 19.0129 23.7887 18.4879C23.6306 18.1492 23.2581 17.8161 22.8911 17.6976C22.3887 17.5282 22.1403 17.5903 20.2887 18.3129C17.675 19.329 16.9298 19.5323 15.2137 19.7242L14.9032 19.7637L15.3661 19.5323C16.1395 19.154 16.704 18.4936 16.9976 17.6129C17.0766 17.3871 17.1048 17.1387 17.1048 16.7097C17.1048 15.8008 16.8169 15.1008 16.196 14.4798C15.4282 13.7121 14.3387 13.396 13.2548 13.6331ZM14.8976 14.6661C15.4113 14.9032 15.7387 15.2307 15.9927 15.7387C16.1903 16.1452 16.2016 16.196 16.2016 16.7097C16.2016 17.2234 16.1903 17.2742 15.9927 17.6806C15.7387 18.1944 15.4113 18.5105 14.8863 18.7589C14.5419 18.9226 14.4573 18.9395 13.9718 18.9395C13.4863 18.9395 13.4016 18.9226 13.0573 18.7589C12.5323 18.5105 12.2048 18.1944 11.9508 17.6806C11.7532 17.2742 11.7419 17.2234 11.7419 16.7153C11.7419 16.2242 11.7589 16.1395 11.9226 15.7952C12.1484 15.3153 12.4702 14.9653 12.8935 14.7452C13.3339 14.5081 13.5823 14.4516 14.096 14.4742C14.4403 14.4911 14.6153 14.5363 14.8976 14.6661Z" fill="white"/>
<path d="M4.31851 22.0839C2.41609 23.2524 2.16206 24.9629 3.6919 26.2331C4.19996 26.6508 4.76448 26.9839 4.97899 26.9839C5.23303 26.9839 5.41367 26.8145 5.41367 26.5718C5.41367 26.3178 5.35722 26.25 4.88303 25.9734C4.10399 25.5105 3.58464 24.8782 3.58464 24.3871C3.58464 23.896 4.10399 23.2637 4.88867 22.8008C5.47012 22.4508 5.58867 22.2081 5.30641 21.9315C5.0919 21.7113 4.86609 21.7452 4.31851 22.0839Z" fill="white"/>
<path d="M22.1854 21.9316C21.9032 22.2082 22.0217 22.4509 22.6032 22.8009C23.3878 23.2638 23.9072 23.8961 23.9072 24.3872C23.9072 24.8783 23.3878 25.5106 22.6032 25.9735C22.0217 26.3235 21.9032 26.5662 22.1854 26.8428C22.383 27.0461 22.6201 27.0235 23.0548 26.7638C24.1725 26.0977 24.8104 25.2283 24.8104 24.3872C24.8104 23.5461 24.1725 22.6767 23.0548 22.0106C22.6201 21.7509 22.383 21.7283 22.1854 21.9316Z" fill="white"/>
</svg>
