<svg width="15" height="20" viewBox="0 0 15 20" fill="none" xmlns="http://www.w3.org/2000/svg">
<path d="M2.79462 0.498663C1.11863 0.781178 -0.0725171 2.25865 0.0305625 3.92702C0.0916468 4.92345 0.561232 5.78627 1.3706 6.39711C1.69893 6.64145 2.45484 6.97359 2.52356 6.90106C2.53502 6.8896 2.48539 6.64908 2.40903 6.37039C2.33267 6.09169 2.26014 5.80536 2.24868 5.73664C2.2296 5.64501 2.17996 5.58011 2.06161 5.49994C1.83255 5.34341 1.54622 5.01508 1.40496 4.74784C1.23316 4.43096 1.16062 4.12554 1.16062 3.73613C1.1568 3.13674 1.35914 2.66334 1.79055 2.23575C2.23341 1.79289 2.68773 1.60582 3.30239 1.60582C3.91705 1.60582 4.37136 1.7967 4.8104 2.23575C5.28381 2.70915 5.45179 3.13674 5.4327 3.8583C5.42506 4.17135 5.44034 4.32406 5.4747 4.38897C5.50524 4.44241 5.61595 4.75929 5.72667 5.09525L5.92901 5.70609L6.07027 5.48466C6.2497 5.19833 6.37569 4.91964 6.48259 4.55313C6.55131 4.30879 6.56276 4.16754 6.56276 3.72467C6.55894 3.25891 6.54749 3.14819 6.45586 2.85422C6.07408 1.59436 5.07001 0.708641 3.79106 0.498663C3.51618 0.456668 3.06187 0.456668 2.79462 0.498663Z" fill="white"/>
<path d="M3.34436 3.51468C3.11148 3.59104 3.01603 3.67121 2.90914 3.87737C2.8366 4.00717 2.82515 4.09117 2.82896 4.43095C2.83278 5.10669 2.93586 5.50756 4.00865 9.08862C5.07763 12.6582 5.14253 12.8911 5.23034 13.5821C5.2647 13.8379 5.18834 14.0021 4.97073 14.1395C4.70349 14.3151 4.47442 14.3686 3.91321 14.3839C3.47035 14.3991 3.29855 14.3839 2.69534 14.2846C1.38585 14.067 0.900993 14.1433 0.374141 14.6549C0.118351 14.9031 0.00381777 15.1627 0 15.491C0 15.8193 0.064902 15.9339 0.343599 16.0751C0.515398 16.1591 0.591754 16.1706 1.29422 16.1973C2.45101 16.2431 3.27182 16.4073 4.00102 16.7394C4.33698 16.8921 4.86383 17.2205 5.42504 17.6251C6.17333 18.1711 6.44439 18.3123 7.52482 18.7437C7.90659 18.8926 8.32655 19.0835 8.46017 19.1599C8.74268 19.324 9.14355 19.7058 9.21609 19.8853C9.24663 19.954 9.28099 20.0036 9.29626 19.9998C9.31153 19.9922 10.5485 19.5264 12.0412 18.9575L14.7557 17.9267L14.7289 17.7168C14.6793 17.3617 14.7098 17.0219 14.8587 16.2584C14.9962 15.5406 15 15.4986 15 14.6244C15 13.605 14.9504 13.2194 14.6755 12.1047C14.2364 10.3447 13.6142 9.07717 12.759 8.21817C12.2016 7.65314 11.6251 7.3859 11.2624 7.52334C11.2051 7.54624 11.0639 7.65314 10.9455 7.76767C10.8272 7.87839 10.6897 7.99292 10.6439 8.01583C10.5332 8.07309 10.4721 8.03873 10.1438 7.76004C9.71239 7.39735 9.41843 7.32481 9.0481 7.50043C8.79613 7.61878 8.69687 7.7295 8.51362 8.10745C8.32273 8.50068 8.26546 8.51595 7.94477 8.27162C7.62789 8.02346 7.41028 7.97383 7.0056 8.06164C6.7918 8.10745 6.61237 8.23726 6.52456 8.40524C6.49402 8.46632 6.45202 8.64958 6.43293 8.80992C6.3833 9.1917 6.36421 9.24897 6.28786 9.2337C6.13133 9.20697 5.92517 8.60758 5.38687 6.64525C5.05472 5.42738 4.84856 4.81654 4.61186 4.33932C4.44006 3.99572 4.13846 3.62922 3.95139 3.53377C3.78341 3.44978 3.55434 3.44214 3.34436 3.51468Z" fill="white"/>
</svg>
