<svg width="12" height="17" viewBox="0 0 12 17" fill="none" xmlns="http://www.w3.org/2000/svg">
<path d="M5.44202 0.796025C5.36147 0.839199 4.6145 1.87206 2.6775 4.60533C-0.299407 8.8198 -0.127311 8.53751 0.129003 8.79323L0.25716 8.91943L2.29669 8.9294C3.91146 8.93604 4.33255 8.946 4.31791 8.97921C4.30692 9.00246 3.50502 10.5667 2.53469 12.4564C1.22017 15.007 0.766126 15.9203 0.766126 16.01C0.766126 16.2524 1.01146 16.4318 1.27875 16.3886C1.40325 16.3687 1.95616 15.8805 6.57347 11.6959C9.41123 9.12866 11.7547 6.98655 11.784 6.93674C11.8535 6.81386 11.8499 6.68101 11.762 6.55481C11.6338 6.36219 11.6521 6.36219 10.0337 6.34558L8.54342 6.32898L10.2717 3.80494C11.9048 1.41375 11.9963 1.27094 12 1.12481C12 0.988649 11.9817 0.952117 11.8792 0.859126L11.762 0.74953L8.65693 0.739567C5.67637 0.732924 5.55187 0.736245 5.44202 0.796025Z" fill="#7C68FA"/>
</svg>
