<svg width="17" height="20" viewBox="0 0 17 20" fill="none" xmlns="http://www.w3.org/2000/svg">
<path d="M5.38862 10.9858L1.6311 6.28887C1.39719 5.99649 1.28024 5.8503 1.19707 5.68751C1.12329 5.54308 1.06936 5.38934 1.03675 5.23047C1 5.0514 1 4.86418 1 4.48975V3.88C1 2.87191 1 2.36786 1.19619 1.98282C1.36876 1.64413 1.64413 1.36876 1.98282 1.19619C2.36786 1 2.87191 1 3.88 1H12.52C13.5281 1 14.0321 1 14.4172 1.19619C14.7559 1.36876 15.0312 1.64413 15.2038 1.98282C15.4 2.36786 15.4 2.87191 15.4 3.88V4.48975C15.4 4.86418 15.4 5.0514 15.3632 5.23047C15.3306 5.38934 15.2767 5.54308 15.2029 5.68751C15.1198 5.8503 15.0028 5.99649 14.7689 6.28887L11.0114 10.9858M1.90005 1.9L8.20005 10L14.5 1.9M11.382 11.318C13.1393 13.0754 13.1393 15.9246 11.382 17.682C9.62463 19.4393 6.77538 19.4393 5.01802 17.682C3.26066 15.9246 3.26066 13.0754 5.01802 11.318C6.77537 9.56066 9.62462 9.56066 11.382 11.318Z" stroke="white" stroke-width="2" stroke-linecap="round" stroke-linejoin="round"/>
</svg>
