<svg width="110" height="38" viewBox="0 0 110 38" fill="none" xmlns="http://www.w3.org/2000/svg">
<path d="M36.6604 0.612096L42.7373 15.8787L43.4841 17.7342C43.5406 17.8765 43.503 18.0919 43.2917 18.0919H40.6852C40.4927 18.0919 40.3589 17.9246 40.3024 17.7823C40.0346 17.092 39.7459 16.3787 39.4782 15.6904L39.2292 15.0252H32.6544L32.4243 15.6193C32.1566 16.3327 31.8679 17.069 31.5813 17.7823C31.5248 17.9246 31.3888 18.0919 31.1985 18.0919H28.8409C28.6485 18.0919 28.592 17.8786 28.6485 17.7342C28.9162 17.092 29.1861 16.4268 29.435 15.7846L35.4722 0.614188C35.6437 0.18535 35.8362 0.0682045 36.0663 0.0682045C36.2755 0.0640208 36.4868 0.206269 36.6604 0.612096ZM38.039 11.9292L35.9492 6.53215L33.8594 11.9292H38.039Z" fill="white"/>
<path d="M44.1159 17.709L52.4165 3.46531H46.1095C45.9756 3.46531 45.8793 3.34607 45.8793 3.18081V0.540845C45.8793 0.373494 45.9756 0.256348 46.1095 0.256348H57.3241C57.4768 0.256348 57.573 0.469721 57.4768 0.637072L49.195 14.8808H57.0919C57.2258 14.8808 57.322 15 57.322 15.1653V17.8052C57.322 17.9726 57.2258 18.0897 57.0919 18.0897H44.2686C44.1159 18.0876 44.0197 17.8743 44.1159 17.709Z" fill="white"/>
<path d="M59.4327 17.8031V0.540845C59.4327 0.373494 59.529 0.256348 59.6628 0.256348H61.9828C62.1166 0.256348 62.2129 0.375585 62.2129 0.540845V17.8031C62.2129 17.9705 62.1166 18.0876 61.9828 18.0876H59.6628C59.529 18.0876 59.4327 17.9705 59.4327 17.8031Z" fill="white"/>
<path d="M66.0452 17.8031V0.540845C66.0452 0.373494 66.1414 0.256348 66.2753 0.256348H68.5952C68.7291 0.256348 68.8253 0.375585 68.8253 0.540845V14.7134C68.8253 14.8326 68.8818 14.8808 68.9592 14.8808H75.419C75.5528 14.8808 75.6491 15 75.6491 15.1653V17.8052C75.6491 17.9726 75.5528 18.0897 75.419 18.0897H66.2753C66.1414 18.0876 66.0452 17.9705 66.0452 17.8031Z" fill="white"/>
<path d="M77.7577 17.8031V0.540845C77.7577 0.373494 77.8539 0.256348 77.9878 0.256348H80.3077C80.4416 0.256348 80.5378 0.375585 80.5378 0.540845V17.8031C80.5378 17.9705 80.4416 18.0876 80.3077 18.0876H77.9878C77.8539 18.0876 77.7577 17.9705 77.7577 17.8031Z" fill="white"/>
<path d="M89.9116 0.612096L95.9885 15.8787L96.7353 17.7342C96.7918 17.8765 96.7541 18.0919 96.5429 18.0919H93.9364C93.7439 18.0919 93.61 17.9246 93.5535 17.7823C93.2858 17.092 92.9971 16.3787 92.7293 15.6904L92.4804 15.0252H85.9056L85.6755 15.6193C85.4077 16.3327 85.119 17.069 84.8324 17.7823C84.7739 17.9246 84.64 18.0919 84.4496 18.0919H82.0921C81.8996 18.0919 81.8431 17.8786 81.8996 17.7342C82.1674 17.092 82.4372 16.4268 82.6862 15.7846L88.7255 0.614188C88.897 0.18535 89.0894 0.0682045 89.3196 0.0682045C89.5287 0.0640208 89.7379 0.206269 89.9116 0.612096ZM91.2922 11.9292L89.2024 6.53215L87.1126 11.9292H91.2922Z" fill="white"/>
<path d="M100.838 7.53206V17.8053C100.838 17.9727 100.741 18.0898 100.607 18.0898H98.3272C98.1934 18.0898 98.0971 17.9706 98.0971 17.8053V0.802443C98.0971 0.0179835 98.7289 -0.314627 99.2665 0.373605L107.145 10.8121V0.540956C107.145 0.373605 107.241 0.256459 107.375 0.256459H109.655C109.789 0.256459 109.885 0.375697 109.885 0.540956V17.661C109.885 18.3743 109.272 18.7069 108.793 18.0647L100.838 7.53206Z" fill="white"/>
<path d="M27.933 28.8965C27.933 24.3341 31.4662 20.6001 35.8655 20.6001C40.2229 20.6001 43.8167 24.3341 43.8167 28.8965C43.8167 33.4799 40.2229 37.2139 35.8655 37.2139C31.4683 37.2139 27.933 33.4799 27.933 28.8965ZM40.9048 28.8965C40.9048 25.8842 38.6351 23.4221 35.8655 23.4221C33.0937 23.4221 30.8449 25.8821 30.8449 28.8735V28.8944C30.8449 31.9277 33.0937 34.3898 35.8655 34.3898C38.6372 34.3919 40.9048 31.9319 40.9048 28.8965Z" fill="white"/>
<path d="M47.0299 36.6198V21.2172C47.0299 21.0687 47.1303 20.962 47.2705 20.962H49.6992C49.8393 20.962 49.9397 21.0687 49.9397 21.2172V26.1394L54.4373 22.7882C55.2406 22.1941 56.0836 21.5582 56.8869 20.9641C57.0271 20.8574 57.1672 20.9013 57.2488 21.0059L58.5332 22.9367C58.5939 23.0434 58.6336 23.1919 58.4935 23.2965C57.6107 23.9534 56.5857 24.719 55.7029 25.3759L53.4332 27.0724L56.3242 33.2456C56.8262 34.3062 57.368 35.4734 57.8513 36.5131C57.9308 36.6825 57.8115 36.8729 57.6295 36.8729H55.0188C54.818 36.8729 54.6967 36.7453 54.6172 36.5759C54.1758 35.622 53.7135 34.6241 53.2721 33.6911L51.0024 28.8756L49.9376 29.6601V36.6198C49.9376 36.7683 49.8372 36.875 49.6971 36.875H47.2684C47.1303 36.875 47.0299 36.7683 47.0299 36.6198Z" fill="white"/>
<path d="M60.805 36.6197V21.2171C60.805 21.0686 60.9054 20.9619 61.0456 20.9619H80.4604C80.6006 20.9619 80.701 21.0686 80.701 21.2171V23.5726C80.701 23.7211 80.6006 23.8278 80.4604 23.8278H63.8571C63.7776 23.8278 63.7169 23.8696 63.7169 23.9763V25.7168H80.4625C80.6027 25.7168 80.7031 25.8235 80.7031 25.972V28.3275C80.7031 28.476 80.6027 28.5827 80.4625 28.5827H63.7169V33.8647C63.7169 33.9505 63.7776 34.0132 63.8571 34.0132H81.6653C81.8055 34.0132 81.9059 34.1199 81.9059 34.2684V36.6239C81.9059 36.7724 81.8055 36.8791 81.6653 36.8791H61.0456C60.9054 36.8749 60.805 36.7682 60.805 36.6197Z" fill="white"/>
<path d="M84.1547 36.3919V20.9893C84.1547 20.8408 84.2551 20.7341 84.3953 20.7341H89.5162C93.1499 20.7341 96.0032 23.4285 96.0032 27.2274C96.0032 30.0284 94.5765 32.1077 92.3884 33.0407C92.9302 33.593 93.3716 34.0804 94.3757 34.0804C94.6163 34.0804 94.8987 34.0386 95.2585 33.911C95.3986 33.8691 95.4991 33.9319 95.5388 34.1013L96.0199 36.1597C96.0597 36.3501 95.999 36.4777 95.8986 36.5195C95.2166 36.8166 94.7146 36.9024 94.2125 36.9024C90.899 36.9024 90.4973 33.9737 87.7277 33.9737H87.0645V36.3919C87.0645 36.5405 86.9641 36.6471 86.824 36.6471H84.3953C84.2551 36.6471 84.1547 36.5405 84.1547 36.3919ZM89.2757 31.1099C91.4052 31.1099 93.0913 29.518 93.0913 27.2274C93.0913 24.9367 91.3655 23.6 89.4577 23.6H87.188C87.1085 23.6 87.0666 23.6628 87.0666 23.7485V31.1099H89.2757Z" fill="white"/>
<path d="M98.3126 34.2495C98.2519 34.1867 98.2122 34.0382 98.3335 33.8897L99.7999 32.2141C99.9401 32.0655 100.08 32.0865 100.181 32.1722C101.425 33.4462 102.651 34.1449 104.398 34.1449C106.044 34.1449 107.009 33.3604 107.009 32.4902C107.009 29.9234 98.6745 29.6473 98.6745 24.8318C98.6745 21.9261 101.145 20.397 104.076 20.397C106.546 20.397 108.312 21.5224 109.559 22.6667C109.68 22.7734 109.68 22.9428 109.619 23.0265L108.153 24.7879C108.073 24.8945 107.931 24.9364 107.791 24.8088C106.866 24.0034 105.661 23.1959 104.057 23.1959C102.712 23.1959 101.647 23.79 101.647 24.6184C101.647 27.0157 110 27.3755 110 32.2141C110 35.1845 107.63 36.9878 104.358 36.9878C101.827 36.9857 99.7978 35.8832 98.3126 34.2495Z" fill="white"/>
<path d="M26.3244 36.1093L26.042 34.1115C26.0043 33.9693 25.9081 33.917 25.7742 33.9525C25.4311 34.0592 25.1634 34.0948 24.9333 34.0948C23.9794 34.0948 23.2932 31.4402 22.6364 31.0155C24.7178 30.2331 26.3097 28.4655 26.3097 26.1184C26.3097 26.0807 26.3076 26.0452 26.3055 26.0075H26.3118V5.10744C26.134 2.09721 23.4836 0.0429688 20.1449 0.0429688H15.2813C15.1474 0.0429688 15.0533 0.13292 15.0533 0.256342V4.46941H15.0491V26.9635H15.0512V36.5193C15.0512 36.6427 15.1474 36.7326 15.2792 36.7326H17.5886C17.7225 36.7326 17.8187 36.6427 17.8187 36.5193V31.7728H18.4484C21.0821 31.7728 21.4586 36.7326 24.609 36.7326C25.086 36.7326 25.5629 36.6615 26.2135 36.4126C26.3055 36.377 26.362 36.2703 26.3244 36.1093ZM19.9169 29.3713H17.8166V26.6978V5.15973H17.8187V2.56788C17.8187 2.49676 17.8564 2.44237 17.9338 2.44237H20.0905C21.7808 2.44237 23.3455 3.41719 23.5463 5.10534H23.5442V26.0222H23.5484C23.5442 26.0535 23.5422 26.0849 23.5422 26.1163C23.5422 28.0387 21.9398 29.3713 19.9169 29.3713Z" fill="white"/>
<path d="M12.8568 26.244H12.8547L12.8589 5.40875C12.8609 5.36063 12.863 5.31252 12.863 5.26231C12.863 2.05963 10.3172 0.0639648 6.85931 0.0639648H0.259394C0.11087 0.0639648 0.00418378 0.170651 0.00418378 0.319176V4.79373H0V28.9467H0.00418378V36.4859C0.00418378 36.6344 0.11087 36.7411 0.259394 36.7411H8.00357C10.6352 36.7411 12.0556 34.8103 12.0556 32.9213C12.0556 31.9026 11.5891 30.9486 10.8046 30.3106C11.8903 29.5554 12.794 28.2229 12.8568 26.244ZM8.02449 33.8773H3.44325C3.31565 33.8773 3.08345 33.8355 3.08345 33.7079V31.9904H8.02659C8.62068 31.9904 9.0035 32.3502 9.0035 32.9025C9.00141 33.4108 8.61859 33.8773 8.02449 33.8773ZM6.79446 29.1245H3.08136V26.244H3.07926V5.47987H3.08136V3.16206C3.08136 2.99261 3.16712 2.92776 3.35749 2.92776H6.79446C8.49517 2.92776 9.7252 4.02392 9.78168 5.47778H9.78587L9.78168 26.2419C9.78377 26.2754 9.78796 26.3088 9.78796 26.3423C9.78587 28.0221 8.55583 29.1245 6.79446 29.1245Z" fill="white"/>
</svg>
