<svg width="1920" height="92" viewBox="0 0 1920 92" fill="none" xmlns="http://www.w3.org/2000/svg">
<mask id="path-1-inside-1_8226_102" fill="white">
<path d="M0 0H1920V92H0V0Z"/>
</mask>
<path d="M0 0H1920V92H0V0Z" fill="#0B0215"/>
<path d="M1920 91H0V93H1920V91Z" fill="#B4B4B4" mask="url(#path-1-inside-1_8226_102)"/>
<mask id="mask0_8226_102" style="mask-type:alpha" maskUnits="userSpaceOnUse" x="0" y="0" width="1920" height="92">
<mask id="path-3-inside-2_8226_102" fill="white">
<path d="M0 0H1920V92H0V0Z"/>
</mask>
<path d="M0 0H1920V92H0V0Z" fill="#0A0A0A"/>
<path d="M1920 91H0V93H1920V91Z" fill="#B4B4B4" mask="url(#path-3-inside-2_8226_102)"/>
</mask>
<g mask="url(#mask0_8226_102)">
<g opacity="0.5" filter="url(#filter0_f_8226_102)">
<ellipse cx="54.1424" cy="-8.75645" rx="209.319" ry="493.623" transform="rotate(-53.4236 54.1424 -8.75645)" fill="url(#paint0_radial_8226_102)"/>
</g>
<g opacity="0.8" filter="url(#filter1_f_8226_102)">
<ellipse cx="1621.34" cy="21.7721" rx="489.326" ry="493.623" transform="rotate(50.3222 1621.34 21.7721)" fill="url(#paint1_radial_8226_102)"/>
</g>
</g>
<defs>
<filter id="filter0_f_8226_102" x="-610.429" y="-596.494" width="1329.14" height="1175.47" filterUnits="userSpaceOnUse" color-interpolation-filters="sRGB">
<feFlood flood-opacity="0" result="BackgroundImageFix"/>
<feBlend mode="normal" in="SourceGraphic" in2="BackgroundImageFix" result="shape"/>
<feGaussianBlur stdDeviation="124.444" result="effect1_foregroundBlur_8226_102"/>
</filter>
<filter id="filter1_f_8226_102" x="880.557" y="-718.211" width="1481.56" height="1479.97" filterUnits="userSpaceOnUse" color-interpolation-filters="sRGB">
<feFlood flood-opacity="0" result="BackgroundImageFix"/>
<feBlend mode="normal" in="SourceGraphic" in2="BackgroundImageFix" result="shape"/>
<feGaussianBlur stdDeviation="124.444" result="effect1_foregroundBlur_8226_102"/>
</filter>
<radialGradient id="paint0_radial_8226_102" cx="0" cy="0" r="1" gradientUnits="userSpaceOnUse" gradientTransform="translate(50.4729 -125.084) rotate(90.2638) scale(564.53 239.387)">
<stop stop-color="#FC386E"/>
<stop offset="0.811535" stop-color="#553736"/>
</radialGradient>
<radialGradient id="paint1_radial_8226_102" cx="0" cy="0" r="1" gradientUnits="userSpaceOnUse" gradientTransform="translate(1558.7 -127.756) rotate(79.4178) scale(501.211 496.513)">
<stop stop-color="#A61940"/>
<stop offset="1" stop-color="#0B0A0A"/>
</radialGradient>
</defs>
</svg>
