<svg width="189" height="26" viewBox="0 0 189 26" fill="none" xmlns="http://www.w3.org/2000/svg">
<path d="M38.1 6.2V17.28C38.1 18.24 37.82 18.9733 37.26 19.48C36.7133 19.9867 35.94 20.24 34.94 20.24C34.7 20.24 34.4133 20.22 34.08 20.18C33.76 20.1533 33.4467 20.1067 33.14 20.04C32.8333 19.9867 32.5867 19.92 32.4 19.84L32.72 17.86H33.7C34.6067 17.86 35.06 17.4867 35.06 16.74V6.2H38.1ZM45.8614 9.86C46.6881 9.86 47.3881 9.97333 47.9614 10.2C48.5347 10.4133 48.9681 10.7867 49.2614 11.32C49.5681 11.84 49.7214 12.56 49.7214 13.48V20H47.3614L46.9414 17.86L46.7414 17.56V13.46C46.7414 12.9933 46.6281 12.6533 46.4014 12.44C46.1881 12.2267 45.7747 12.12 45.1614 12.12C44.6547 12.12 44.0214 12.14 43.2614 12.18C42.5014 12.2067 41.7214 12.2467 40.9214 12.3L40.6414 10.34C41.1214 10.2467 41.6747 10.1667 42.3014 10.1C42.9281 10.0333 43.5547 9.98 44.1814 9.94C44.8081 9.88667 45.3681 9.86 45.8614 9.86ZM48.5014 13.92L48.4814 15.58L44.0814 15.6C43.7214 15.6 43.4614 15.6867 43.3014 15.86C43.1547 16.0333 43.0814 16.2667 43.0814 16.56V17.04C43.0814 17.3733 43.1747 17.6333 43.3614 17.82C43.5481 17.9933 43.8481 18.08 44.2614 18.08C44.6081 18.08 44.9814 18.0067 45.3814 17.86C45.7947 17.7133 46.2014 17.5067 46.6014 17.24C47.0014 16.9733 47.3547 16.66 47.6614 16.3V17.58C47.5414 17.78 47.3614 18.0333 47.1214 18.34C46.8947 18.6333 46.6014 18.9267 46.2414 19.22C45.8814 19.5 45.4614 19.74 44.9814 19.94C44.5014 20.14 43.9547 20.24 43.3414 20.24C42.7414 20.24 42.2014 20.1333 41.7214 19.92C41.2414 19.7067 40.8614 19.3933 40.5814 18.98C40.3014 18.5667 40.1614 18.0533 40.1614 17.44V16.42C40.1614 15.6333 40.4281 15.02 40.9614 14.58C41.4947 14.14 42.2281 13.92 43.1614 13.92H48.5014ZM54.3677 10.12L54.7277 12.08L55.0077 12.34V20H52.0477V10.12H54.3677ZM59.1877 9.86L58.9077 12.6H58.0877C57.621 12.6 57.1343 12.6667 56.6277 12.8C56.121 12.9333 55.481 13.1333 54.7077 13.4L54.5077 11.74C55.201 11.1267 55.901 10.66 56.6077 10.34C57.3143 10.02 58.001 9.86 58.6677 9.86H59.1877ZM63.8652 9.86C64.5585 9.86 65.2252 9.96 65.8652 10.16C66.5185 10.36 67.0918 10.6867 67.5852 11.14L67.3852 12.5C66.9318 12.3667 66.5252 12.2467 66.1652 12.14C65.8052 12.0333 65.3852 11.98 64.9052 11.98C64.4918 11.98 64.1585 12.0533 63.9052 12.2C63.6518 12.3467 63.4652 12.6333 63.3452 13.06C63.2252 13.4867 63.1652 14.12 63.1652 14.96C63.1652 15.7467 63.2185 16.3467 63.3252 16.76C63.4452 17.16 63.6252 17.44 63.8652 17.6C64.1185 17.7467 64.4385 17.82 64.8252 17.82C65.1718 17.82 65.4718 17.7867 65.7252 17.72C65.9785 17.64 66.2318 17.5267 66.4852 17.38C66.7385 17.22 67.0252 17.0267 67.3452 16.8L67.5652 18.26C67.1652 18.82 66.6452 19.2933 66.0052 19.68C65.3652 20.0533 64.5785 20.24 63.6452 20.24C62.3785 20.24 61.4718 19.7867 60.9252 18.88C60.3918 17.9733 60.1252 16.6733 60.1252 14.98C60.1252 13.66 60.2585 12.6333 60.5252 11.9C60.8052 11.1533 61.2252 10.6267 61.7852 10.32C62.3452 10.0133 63.0385 9.86 63.8652 9.86ZM70.0052 6V20H67.6652L67.3652 18.18L67.0452 17.96V11.48L67.1652 11.22C67.1252 10.8067 67.0918 10.3933 67.0652 9.98C67.0518 9.55333 67.0452 9.12 67.0452 8.68V6H70.0052ZM76.1788 9.86C76.6588 9.86 77.1788 9.88 77.7388 9.92C78.2988 9.94667 78.8454 9.98667 79.3788 10.04C79.9121 10.0933 80.3854 10.16 80.7988 10.24L80.5988 12.08C79.9588 12.0667 79.3121 12.06 78.6588 12.06C78.0188 12.0467 77.3921 12.04 76.7788 12.04C76.2588 12.0267 75.8588 12.0333 75.5788 12.06C75.2988 12.0867 75.0988 12.1533 74.9788 12.26C74.8721 12.3533 74.8188 12.5267 74.8188 12.78C74.8188 13.0733 74.9188 13.2733 75.1188 13.38C75.3188 13.4733 75.6521 13.58 76.1188 13.7L78.6988 14.32C79.5254 14.5333 80.1388 14.8533 80.5388 15.28C80.9388 15.6933 81.1388 16.32 81.1388 17.16C81.1388 17.9867 80.9854 18.62 80.6788 19.06C80.3721 19.5 79.8854 19.8067 79.2188 19.98C78.5521 20.14 77.6921 20.22 76.6388 20.22C76.2254 20.22 75.6121 20.2 74.7988 20.16C73.9854 20.12 73.0921 20.02 72.1188 19.86L72.3188 18.02C72.5588 18.0333 72.8654 18.0467 73.2388 18.06C73.6121 18.06 74.0188 18.06 74.4588 18.06C74.8988 18.06 75.3388 18.06 75.7788 18.06C76.4588 18.06 76.9788 18.0467 77.3388 18.02C77.6988 17.98 77.9454 17.9 78.0788 17.78C78.2121 17.66 78.2788 17.48 78.2788 17.24C78.2788 16.9467 78.1654 16.7467 77.9388 16.64C77.7121 16.5333 77.3521 16.42 76.8588 16.3L74.3588 15.68C73.7321 15.5067 73.2454 15.2867 72.8988 15.02C72.5521 14.7533 72.3054 14.4267 72.1588 14.04C72.0254 13.6533 71.9588 13.1933 71.9588 12.66C71.9588 11.98 72.0921 11.44 72.3588 11.04C72.6388 10.6267 73.0854 10.3267 73.6988 10.14C74.3254 9.95333 75.1521 9.86 76.1788 9.86ZM87.7438 9.86C88.9838 9.86 89.9771 10.0333 90.7238 10.38C91.4704 10.7133 92.0038 11.26 92.3238 12.02C92.6571 12.78 92.8238 13.8 92.8238 15.08C92.8238 16.3333 92.6571 17.34 92.3238 18.1C92.0038 18.86 91.4704 19.4067 90.7238 19.74C89.9771 20.0733 88.9838 20.24 87.7438 20.24C86.5171 20.24 85.5238 20.0733 84.7638 19.74C84.0171 19.4067 83.4771 18.86 83.1438 18.1C82.8104 17.34 82.6438 16.3333 82.6438 15.08C82.6438 13.8 82.8104 12.78 83.1438 12.02C83.4771 11.26 84.0171 10.7133 84.7638 10.38C85.5238 10.0333 86.5171 9.86 87.7438 9.86ZM87.7438 12.02C87.2371 12.02 86.8371 12.1067 86.5438 12.28C86.2504 12.4533 86.0438 12.76 85.9238 13.2C85.8038 13.64 85.7438 14.2667 85.7438 15.08C85.7438 15.88 85.8038 16.5 85.9238 16.94C86.0438 17.38 86.2504 17.6867 86.5438 17.86C86.8371 18.02 87.2371 18.1 87.7438 18.1C88.2504 18.1 88.6504 18.02 88.9438 17.86C89.2371 17.6867 89.4438 17.38 89.5638 16.94C89.6838 16.5 89.7438 15.88 89.7438 15.08C89.7438 14.2667 89.6838 13.64 89.5638 13.2C89.4438 12.76 89.2371 12.4533 88.9438 12.28C88.6504 12.1067 88.2504 12.02 87.7438 12.02ZM101.721 9.86C103.587 9.86 104.521 10.7733 104.521 12.6V20H101.561V13.52C101.561 13.08 101.481 12.78 101.321 12.62C101.161 12.4467 100.887 12.36 100.501 12.36C100.074 12.36 99.634 12.4467 99.1806 12.62C98.7273 12.78 98.1673 13.0333 97.5006 13.38L97.3606 11.72C98.0673 11.12 98.7873 10.66 99.5206 10.34C100.267 10.02 101.001 9.86 101.721 9.86ZM97.2206 10.12L97.5606 12.08L97.8006 12.34V20H94.8406V10.12H97.2206ZM123.689 9.86C124.582 9.86 125.262 10.0933 125.729 10.56C126.195 11.0267 126.429 11.7067 126.429 12.6V20H123.489V13.52C123.489 13.1067 123.409 12.8133 123.249 12.64C123.089 12.4533 122.809 12.36 122.409 12.36C122.169 12.36 121.942 12.3933 121.729 12.46C121.515 12.5267 121.269 12.6333 120.989 12.78C120.709 12.9267 120.369 13.1267 119.969 13.38L119.809 11.74C120.449 11.1133 121.075 10.6467 121.689 10.34C122.315 10.02 122.982 9.86 123.689 9.86ZM113.529 10.12L113.829 12.08L114.129 12.34V20H111.169V10.12H113.529ZM117.529 9.86C118.409 9.86 119.075 10.0933 119.529 10.56C119.995 11.0133 120.229 11.6933 120.229 12.6V20H117.389V13.52C117.389 13.0933 117.295 12.7933 117.109 12.62C116.935 12.4467 116.662 12.36 116.289 12.36C116.062 12.36 115.835 12.3933 115.609 12.46C115.395 12.5133 115.142 12.6133 114.849 12.76C114.569 12.9067 114.222 13.1133 113.809 13.38L113.629 11.74C114.282 11.1133 114.915 10.6467 115.529 10.34C116.142 10.02 116.809 9.86 117.529 9.86ZM134.006 9.86C134.833 9.86 135.533 9.97333 136.106 10.2C136.679 10.4133 137.113 10.7867 137.406 11.32C137.713 11.84 137.866 12.56 137.866 13.48V20H135.506L135.086 17.86L134.886 17.56V13.46C134.886 12.9933 134.773 12.6533 134.546 12.44C134.333 12.2267 133.919 12.12 133.306 12.12C132.799 12.12 132.166 12.14 131.406 12.18C130.646 12.2067 129.866 12.2467 129.066 12.3L128.786 10.34C129.266 10.2467 129.819 10.1667 130.446 10.1C131.073 10.0333 131.699 9.98 132.326 9.94C132.953 9.88667 133.513 9.86 134.006 9.86ZM136.646 13.92L136.626 15.58L132.226 15.6C131.866 15.6 131.606 15.6867 131.446 15.86C131.299 16.0333 131.226 16.2667 131.226 16.56V17.04C131.226 17.3733 131.319 17.6333 131.506 17.82C131.693 17.9933 131.993 18.08 132.406 18.08C132.753 18.08 133.126 18.0067 133.526 17.86C133.939 17.7133 134.346 17.5067 134.746 17.24C135.146 16.9733 135.499 16.66 135.806 16.3V17.58C135.686 17.78 135.506 18.0333 135.266 18.34C135.039 18.6333 134.746 18.9267 134.386 19.22C134.026 19.5 133.606 19.74 133.126 19.94C132.646 20.14 132.099 20.24 131.486 20.24C130.886 20.24 130.346 20.1333 129.866 19.92C129.386 19.7067 129.006 19.3933 128.726 18.98C128.446 18.5667 128.306 18.0533 128.306 17.44V16.42C128.306 15.6333 128.573 15.02 129.106 14.58C129.639 14.14 130.373 13.92 131.306 13.92H136.646ZM142.512 10.12L142.872 12.08L143.152 12.34V20H140.192V10.12H142.512ZM147.332 9.86L147.052 12.6H146.232C145.766 12.6 145.279 12.6667 144.772 12.8C144.266 12.9333 143.626 13.1333 142.852 13.4L142.652 11.74C143.346 11.1267 144.046 10.66 144.752 10.34C145.459 10.02 146.146 9.86 146.812 9.86H147.332ZM152.587 7.38V16.84C152.587 17.2 152.667 17.46 152.827 17.62C153.001 17.7667 153.281 17.84 153.667 17.84H154.947L155.267 19.84C155.027 19.92 154.734 19.9867 154.387 20.04C154.041 20.1067 153.694 20.1533 153.347 20.18C153.001 20.22 152.707 20.24 152.467 20.24C151.574 20.24 150.874 20 150.367 19.52C149.874 19.04 149.627 18.3667 149.627 17.5L149.607 7.38H152.587ZM155.347 10.12V12.06H147.887V10.22L149.807 10.12H155.347ZM159.95 10.12V20H157.01V10.12H159.95ZM159.13 5.76C159.717 5.76 160.01 6.06 160.01 6.66V7.72C160.01 8.32 159.717 8.62 159.13 8.62H157.85C157.264 8.62 156.97 8.32 156.97 7.72V6.66C156.97 6.06 157.264 5.76 157.85 5.76H159.13ZM169.338 9.86C171.204 9.86 172.138 10.7733 172.138 12.6V20H169.178V13.52C169.178 13.08 169.098 12.78 168.938 12.62C168.778 12.4467 168.504 12.36 168.118 12.36C167.691 12.36 167.251 12.4467 166.798 12.62C166.344 12.78 165.784 13.0333 165.118 13.38L164.978 11.72C165.684 11.12 166.404 10.66 167.138 10.34C167.884 10.02 168.618 9.86 169.338 9.86ZM164.838 10.12L165.178 12.08L165.418 12.34V20H162.458V10.12H164.838ZM178.23 9.86C178.71 9.86 179.23 9.88 179.79 9.92C180.35 9.94667 180.896 9.98667 181.43 10.04C181.963 10.0933 182.436 10.16 182.85 10.24L182.65 12.08C182.01 12.0667 181.363 12.06 180.71 12.06C180.07 12.0467 179.443 12.04 178.83 12.04C178.31 12.0267 177.91 12.0333 177.63 12.06C177.35 12.0867 177.15 12.1533 177.03 12.26C176.923 12.3533 176.87 12.5267 176.87 12.78C176.87 13.0733 176.97 13.2733 177.17 13.38C177.37 13.4733 177.703 13.58 178.17 13.7L180.75 14.32C181.576 14.5333 182.19 14.8533 182.59 15.28C182.99 15.6933 183.19 16.32 183.19 17.16C183.19 17.9867 183.036 18.62 182.73 19.06C182.423 19.5 181.936 19.8067 181.27 19.98C180.603 20.14 179.743 20.22 178.69 20.22C178.276 20.22 177.663 20.2 176.85 20.16C176.036 20.12 175.143 20.02 174.17 19.86L174.37 18.02C174.61 18.0333 174.916 18.0467 175.29 18.06C175.663 18.06 176.07 18.06 176.51 18.06C176.95 18.06 177.39 18.06 177.83 18.06C178.51 18.06 179.03 18.0467 179.39 18.02C179.75 17.98 179.996 17.9 180.13 17.78C180.263 17.66 180.33 17.48 180.33 17.24C180.33 16.9467 180.216 16.7467 179.99 16.64C179.763 16.5333 179.403 16.42 178.91 16.3L176.41 15.68C175.783 15.5067 175.296 15.2867 174.95 15.02C174.603 14.7533 174.356 14.4267 174.21 14.04C174.076 13.6533 174.01 13.1933 174.01 12.66C174.01 11.98 174.143 11.44 174.41 11.04C174.69 10.6267 175.136 10.3267 175.75 10.14C176.376 9.95333 177.203 9.86 178.23 9.86Z" fill="white"/>
<path d="M16.7548 9.29015V20.8343L21 18.3166V6.77238L11.2677 1L7.02252 3.51777L16.7548 9.29015Z" fill="url(#paint0_linear_8017_101)"/>
<path d="M9.73232 13.4553V25L13.9769 22.4822V10.9375L4.24514 5.1651L0 7.68287L9.73232 13.4553Z" fill="url(#paint1_linear_8017_101)"/>
<path d="M0 7.68287V19.2276L4.24514 16.7099V5.1651L0 7.68287Z" fill="url(#paint2_linear_8017_101)"/>
<path d="M0 7.68286L4.24514 10.2006V12.1964L0 7.68286Z" fill="#0B0215"/>
<defs>
<linearGradient id="paint0_linear_8017_101" x1="5.69133" y1="11.3304" x2="23.6842" y2="11.1186" gradientUnits="userSpaceOnUse">
<stop stop-color="#F44D4F"/>
<stop offset="1" stop-color="#FC386F"/>
</linearGradient>
<linearGradient id="paint1_linear_8017_101" x1="-1.33113" y1="15.4958" x2="16.661" y2="15.284" gradientUnits="userSpaceOnUse">
<stop stop-color="#F44D4F"/>
<stop offset="1" stop-color="#FC386F"/>
</linearGradient>
<linearGradient id="paint2_linear_8017_101" x1="-0.404299" y1="12.4893" x2="5.06099" y2="12.4618" gradientUnits="userSpaceOnUse">
<stop stop-color="#F44D4F"/>
<stop offset="1" stop-color="#FC386F"/>
</linearGradient>
</defs>
</svg>
