<svg width="198" height="26" viewBox="0 0 198 26" fill="none" xmlns="http://www.w3.org/2000/svg">
<path d="M32.7 16.88C32.9533 17.0533 33.3 17.22 33.74 17.38C34.1933 17.5267 34.7267 17.6 35.34 17.6C35.9667 17.6 36.48 17.5 36.88 17.3C37.28 17.0867 37.5867 16.7733 37.8 16.36C38.0133 15.9333 38.16 15.3933 38.24 14.74C38.32 14.0867 38.36 13.3133 38.36 12.42V4.8H40.16V12.02C40.16 13.0733 40.1067 14.04 40 14.92C39.8933 15.8 39.68 16.5667 39.36 17.22C39.04 17.86 38.56 18.3533 37.92 18.7C37.2933 19.0467 36.4533 19.22 35.4 19.22C34.7333 19.22 34.1467 19.1467 33.64 19C33.1333 18.8533 32.6667 18.6333 32.24 18.34L32.7 16.88ZM43.3312 15.98C43.3312 15.3133 43.5179 14.74 43.8912 14.26C44.2779 13.7667 44.8046 13.3867 45.4712 13.12C46.1379 12.8533 46.9113 12.72 47.7913 12.72C48.2579 12.72 48.7513 12.76 49.2713 12.84C49.7913 12.9067 50.2513 13.0133 50.6513 13.16V12.4C50.6513 11.6 50.4113 10.9733 49.9313 10.52C49.4512 10.0533 48.7712 9.82 47.8913 9.82C47.3179 9.82 46.7646 9.92667 46.2313 10.14C45.7112 10.34 45.1579 10.6333 44.5712 11.02L43.9312 9.78C44.6112 9.31333 45.2912 8.96667 45.9712 8.74C46.6513 8.5 47.3579 8.38 48.0912 8.38C49.4246 8.38 50.4779 8.75333 51.2513 9.5C52.0246 10.2333 52.4113 11.26 52.4113 12.58V17C52.4113 17.2133 52.4513 17.3733 52.5312 17.48C52.6246 17.5733 52.7713 17.6267 52.9713 17.64V19C52.7979 19.0267 52.6446 19.0467 52.5113 19.06C52.3913 19.0733 52.2913 19.08 52.2113 19.08C51.7979 19.08 51.4846 18.9667 51.2713 18.74C51.0713 18.5133 50.9579 18.2733 50.9313 18.02L50.8913 17.36C50.4379 17.9467 49.8446 18.4 49.1112 18.72C48.3779 19.04 47.6512 19.2 46.9312 19.2C46.2379 19.2 45.6179 19.06 45.0712 18.78C44.5246 18.4867 44.0979 18.1 43.7912 17.62C43.4846 17.1267 43.3312 16.58 43.3312 15.98ZM50.1312 16.72C50.2913 16.5333 50.4179 16.3467 50.5113 16.16C50.6046 15.96 50.6513 15.7933 50.6513 15.66V14.36C50.2379 14.2 49.8046 14.08 49.3513 14C48.8979 13.9067 48.4513 13.86 48.0112 13.86C47.1179 13.86 46.3912 14.04 45.8312 14.4C45.2846 14.7467 45.0112 15.2267 45.0112 15.84C45.0112 16.1733 45.0979 16.5 45.2712 16.82C45.4579 17.1267 45.7246 17.38 46.0713 17.58C46.4312 17.78 46.8712 17.88 47.3913 17.88C47.9379 17.88 48.4579 17.7733 48.9513 17.56C49.4446 17.3333 49.8379 17.0533 50.1312 16.72ZM61.9455 10.1C61.0655 10.1133 60.2855 10.34 59.6055 10.78C58.9388 11.2067 58.4655 11.8 58.1855 12.56V19H56.4255V8.56H58.0655V10.98C58.4255 10.26 58.8988 9.68 59.4855 9.24C60.0855 8.78667 60.7121 8.53333 61.3655 8.48C61.4988 8.48 61.6121 8.48 61.7055 8.48C61.7988 8.48 61.8788 8.48667 61.9455 8.5V10.1ZM64.0158 13.8C64.0158 12.8133 64.2158 11.9133 64.6158 11.1C65.0291 10.2733 65.5891 9.61333 66.2958 9.12C67.0158 8.62667 67.8358 8.38 68.7558 8.38C69.5958 8.38 70.3491 8.6 71.0158 9.04C71.6824 9.48 72.2024 10.0133 72.5758 10.64V4.4H74.3358V17C74.3358 17.2133 74.3758 17.3733 74.4558 17.48C74.5491 17.5733 74.6958 17.6267 74.8958 17.64V19C74.5624 19.0533 74.3024 19.08 74.1158 19.08C73.7691 19.08 73.4624 18.96 73.1958 18.72C72.9424 18.48 72.8158 18.2133 72.8158 17.92V17.04C72.4024 17.7067 71.8491 18.2333 71.1558 18.62C70.4624 19.0067 69.7424 19.2 68.9958 19.2C68.2758 19.2 67.6091 19.06 66.9958 18.78C66.3958 18.4867 65.8691 18.0867 65.4158 17.58C64.9758 17.0733 64.6291 16.5 64.3758 15.86C64.1358 15.2067 64.0158 14.52 64.0158 13.8ZM72.5758 15.34V12.34C72.4158 11.8867 72.1558 11.48 71.7958 11.12C71.4358 10.7467 71.0291 10.4533 70.5758 10.24C70.1358 10.0133 69.6958 9.9 69.2558 9.9C68.7358 9.9 68.2624 10.0133 67.8358 10.24C67.4224 10.4533 67.0624 10.7467 66.7558 11.12C66.4624 11.48 66.2358 11.8933 66.0758 12.36C65.9158 12.8267 65.8358 13.3133 65.8358 13.82C65.8358 14.34 65.9224 14.8333 66.0958 15.3C66.2824 15.7667 66.5358 16.18 66.8558 16.54C67.1891 16.9 67.5691 17.18 67.9958 17.38C68.4358 17.58 68.9091 17.68 69.4158 17.68C69.7358 17.68 70.0624 17.62 70.3958 17.5C70.7424 17.38 71.0691 17.2133 71.3758 17C71.6824 16.7867 71.9424 16.54 72.1558 16.26C72.3691 15.9667 72.5091 15.66 72.5758 15.34ZM82.0539 19.2C81.1872 19.2 80.3739 19.06 79.6139 18.78C78.8539 18.4867 78.2006 18.0533 77.6539 17.48L78.3339 16.24C78.9339 16.8 79.5339 17.2 80.1339 17.44C80.7339 17.68 81.3472 17.8 81.9739 17.8C82.6939 17.8 83.2806 17.6667 83.7339 17.4C84.1872 17.12 84.4139 16.7133 84.4139 16.18C84.4139 15.7933 84.2939 15.5067 84.0539 15.32C83.8272 15.1333 83.5006 14.98 83.0739 14.86C82.6472 14.7267 82.1406 14.58 81.5539 14.42C80.8339 14.2067 80.2272 13.98 79.7339 13.74C79.2406 13.5 78.8672 13.2 78.6139 12.84C78.3606 12.48 78.2339 12.0267 78.2339 11.48C78.2339 10.8133 78.4072 10.2533 78.7539 9.8C79.1006 9.33333 79.5739 8.98 80.1739 8.74C80.7872 8.5 81.4806 8.38 82.2539 8.38C83.0272 8.38 83.7272 8.5 84.3539 8.74C84.9806 8.98 85.5206 9.33333 85.9739 9.8L85.1739 11.02C84.7606 10.5933 84.3072 10.28 83.8139 10.08C83.3206 9.86667 82.7672 9.76 82.1539 9.76C81.7939 9.76 81.4406 9.80667 81.0939 9.9C80.7472 9.98 80.4606 10.1333 80.2339 10.36C80.0072 10.5733 79.8939 10.88 79.8939 11.28C79.8939 11.6133 79.9806 11.88 80.1539 12.08C80.3406 12.2667 80.6072 12.4267 80.9539 12.56C81.3139 12.6933 81.7472 12.84 82.2539 13C83.0406 13.2267 83.7206 13.4533 84.2939 13.68C84.8806 13.9067 85.3339 14.2 85.6539 14.56C85.9739 14.92 86.1339 15.42 86.1339 16.06C86.1339 17.0467 85.7606 17.82 85.0139 18.38C84.2672 18.9267 83.2806 19.2 82.0539 19.2ZM93.9995 19.2C93.2129 19.2 92.4995 19.06 91.8595 18.78C91.2195 18.4867 90.6662 18.0933 90.1995 17.6C89.7329 17.0933 89.3729 16.5133 89.1195 15.86C88.8662 15.2067 88.7395 14.52 88.7395 13.8C88.7395 13.0667 88.8662 12.3733 89.1195 11.72C89.3729 11.0667 89.7329 10.4933 90.1995 10C90.6662 9.49333 91.2195 9.1 91.8595 8.82C92.5129 8.52667 93.2262 8.38 93.9995 8.38C94.7862 8.38 95.4995 8.52667 96.1395 8.82C96.7795 9.1 97.3329 9.49333 97.7995 10C98.2795 10.4933 98.6462 11.0667 98.8995 11.72C99.1529 12.3733 99.2795 13.0667 99.2795 13.8C99.2795 14.52 99.1529 15.2067 98.8995 15.86C98.6462 16.5133 98.2862 17.0933 97.8195 17.6C97.3529 18.0933 96.7929 18.4867 96.1395 18.78C95.4995 19.06 94.7862 19.2 93.9995 19.2ZM90.5395 13.82C90.5395 14.54 90.6929 15.1933 90.9995 15.78C91.3195 16.3667 91.7395 16.8333 92.2595 17.18C92.7795 17.5133 93.3595 17.68 93.9995 17.68C94.6395 17.68 95.2195 17.5067 95.7395 17.16C96.2729 16.8133 96.6929 16.3467 96.9995 15.76C97.3195 15.16 97.4795 14.5 97.4795 13.78C97.4795 13.06 97.3195 12.4067 96.9995 11.82C96.6929 11.2333 96.2729 10.7667 95.7395 10.42C95.2195 10.0733 94.6395 9.9 93.9995 9.9C93.3595 9.9 92.7795 10.08 92.2595 10.44C91.7395 10.7867 91.3195 11.2533 90.9995 11.84C90.6929 12.4267 90.5395 13.0867 90.5395 13.82ZM111.672 19H109.912V13.16C109.912 12.0533 109.739 11.2467 109.392 10.74C109.059 10.22 108.546 9.96 107.852 9.96C107.372 9.96 106.892 10.08 106.412 10.32C105.946 10.56 105.526 10.8867 105.152 11.3C104.792 11.7 104.532 12.1667 104.372 12.7V19H102.612V8.56H104.212V10.8C104.492 10.3067 104.852 9.88 105.292 9.52C105.732 9.16 106.232 8.88 106.792 8.68C107.352 8.48 107.939 8.38 108.552 8.38C109.152 8.38 109.652 8.49333 110.052 8.72C110.466 8.93333 110.786 9.24 111.012 9.64C111.252 10.0267 111.419 10.4867 111.512 11.02C111.619 11.5533 111.672 12.1333 111.672 12.76V19ZM137.608 19H135.848V13.16C135.848 12.0667 135.668 11.26 135.308 10.74C134.961 10.22 134.441 9.96 133.748 9.96C133.041 9.96 132.401 10.22 131.828 10.74C131.254 11.2467 130.848 11.9067 130.608 12.72V19H128.848V13.16C128.848 12.0533 128.674 11.2467 128.328 10.74C127.981 10.22 127.461 9.96 126.768 9.96C126.074 9.96 125.434 10.2133 124.848 10.72C124.274 11.2133 123.868 11.8733 123.628 12.7V19H121.868V8.56H123.468V10.8C123.894 10.0267 124.448 9.43333 125.128 9.02C125.808 8.59333 126.574 8.38 127.428 8.38C128.294 8.38 128.988 8.62 129.508 9.1C130.028 9.56667 130.348 10.1733 130.468 10.92C130.934 10.0933 131.501 9.46667 132.168 9.04C132.834 8.6 133.594 8.38 134.448 8.38C135.048 8.38 135.548 8.49333 135.948 8.72C136.361 8.93333 136.688 9.24 136.928 9.64C137.168 10.0267 137.341 10.4867 137.448 11.02C137.554 11.5533 137.608 12.1333 137.608 12.76V19ZM140.724 15.98C140.724 15.3133 140.911 14.74 141.284 14.26C141.671 13.7667 142.198 13.3867 142.864 13.12C143.531 12.8533 144.304 12.72 145.184 12.72C145.651 12.72 146.144 12.76 146.664 12.84C147.184 12.9067 147.644 13.0133 148.044 13.16V12.4C148.044 11.6 147.804 10.9733 147.324 10.52C146.844 10.0533 146.164 9.82 145.284 9.82C144.711 9.82 144.158 9.92667 143.624 10.14C143.104 10.34 142.551 10.6333 141.964 11.02L141.324 9.78C142.004 9.31333 142.684 8.96667 143.364 8.74C144.044 8.5 144.751 8.38 145.484 8.38C146.818 8.38 147.871 8.75333 148.644 9.5C149.418 10.2333 149.804 11.26 149.804 12.58V17C149.804 17.2133 149.844 17.3733 149.924 17.48C150.018 17.5733 150.164 17.6267 150.364 17.64V19C150.191 19.0267 150.038 19.0467 149.904 19.06C149.784 19.0733 149.684 19.08 149.604 19.08C149.191 19.08 148.878 18.9667 148.664 18.74C148.464 18.5133 148.351 18.2733 148.324 18.02L148.284 17.36C147.831 17.9467 147.238 18.4 146.504 18.72C145.771 19.04 145.044 19.2 144.324 19.2C143.631 19.2 143.011 19.06 142.464 18.78C141.918 18.4867 141.491 18.1 141.184 17.62C140.878 17.1267 140.724 16.58 140.724 15.98ZM147.524 16.72C147.684 16.5333 147.811 16.3467 147.904 16.16C147.998 15.96 148.044 15.7933 148.044 15.66V14.36C147.631 14.2 147.198 14.08 146.744 14C146.291 13.9067 145.844 13.86 145.404 13.86C144.511 13.86 143.784 14.04 143.224 14.4C142.678 14.7467 142.404 15.2267 142.404 15.84C142.404 16.1733 142.491 16.5 142.664 16.82C142.851 17.1267 143.118 17.38 143.464 17.58C143.824 17.78 144.264 17.88 144.784 17.88C145.331 17.88 145.851 17.7733 146.344 17.56C146.838 17.3333 147.231 17.0533 147.524 16.72ZM159.338 10.1C158.458 10.1133 157.678 10.34 156.998 10.78C156.332 11.2067 155.858 11.8 155.578 12.56V19H153.818V8.56H155.458V10.98C155.818 10.26 156.292 9.68 156.878 9.24C157.478 8.78667 158.105 8.53333 158.758 8.48C158.892 8.48 159.005 8.48 159.098 8.48C159.192 8.48 159.272 8.48667 159.338 8.5V10.1ZM167.684 18.48C167.537 18.5467 167.337 18.6333 167.084 18.74C166.831 18.8467 166.537 18.94 166.204 19.02C165.871 19.1 165.517 19.14 165.144 19.14C164.717 19.14 164.324 19.0667 163.964 18.92C163.604 18.76 163.317 18.52 163.104 18.2C162.891 17.8667 162.784 17.4533 162.784 16.96V9.94H161.364V8.56H162.784V5.08H164.544V8.56H166.884V9.94H164.544V16.42C164.571 16.7933 164.697 17.0733 164.924 17.26C165.151 17.4333 165.417 17.52 165.724 17.52C166.071 17.52 166.391 17.46 166.684 17.34C166.977 17.22 167.171 17.1333 167.264 17.08L167.684 18.48ZM170.515 19V8.56H172.275V19H170.515ZM170.515 6.6V4.4H172.275V6.6H170.515ZM185.385 19H183.625V13.16C183.625 12.0533 183.451 11.2467 183.105 10.74C182.771 10.22 182.258 9.96 181.565 9.96C181.085 9.96 180.605 10.08 180.125 10.32C179.658 10.56 179.238 10.8867 178.865 11.3C178.505 11.7 178.245 12.1667 178.085 12.7V19H176.325V8.56H177.925V10.8C178.205 10.3067 178.565 9.88 179.005 9.52C179.445 9.16 179.945 8.88 180.505 8.68C181.065 8.48 181.651 8.38 182.265 8.38C182.865 8.38 183.365 8.49333 183.765 8.72C184.178 8.93333 184.498 9.24 184.725 9.64C184.965 10.0267 185.131 10.4867 185.225 11.02C185.331 11.5533 185.385 12.1333 185.385 12.76V19ZM192.902 19.2C192.035 19.2 191.222 19.06 190.462 18.78C189.702 18.4867 189.048 18.0533 188.502 17.48L189.182 16.24C189.782 16.8 190.382 17.2 190.982 17.44C191.582 17.68 192.195 17.8 192.822 17.8C193.542 17.8 194.128 17.6667 194.582 17.4C195.035 17.12 195.262 16.7133 195.262 16.18C195.262 15.7933 195.142 15.5067 194.902 15.32C194.675 15.1333 194.348 14.98 193.922 14.86C193.495 14.7267 192.988 14.58 192.402 14.42C191.682 14.2067 191.075 13.98 190.582 13.74C190.088 13.5 189.715 13.2 189.462 12.84C189.208 12.48 189.082 12.0267 189.082 11.48C189.082 10.8133 189.255 10.2533 189.602 9.8C189.948 9.33333 190.422 8.98 191.022 8.74C191.635 8.5 192.328 8.38 193.102 8.38C193.875 8.38 194.575 8.5 195.202 8.74C195.828 8.98 196.368 9.33333 196.822 9.8L196.022 11.02C195.608 10.5933 195.155 10.28 194.662 10.08C194.168 9.86667 193.615 9.76 193.002 9.76C192.642 9.76 192.288 9.80667 191.942 9.9C191.595 9.98 191.308 10.1333 191.082 10.36C190.855 10.5733 190.742 10.88 190.742 11.28C190.742 11.6133 190.828 11.88 191.002 12.08C191.188 12.2667 191.455 12.4267 191.802 12.56C192.162 12.6933 192.595 12.84 193.102 13C193.888 13.2267 194.568 13.4533 195.142 13.68C195.728 13.9067 196.182 14.2 196.502 14.56C196.822 14.92 196.982 15.42 196.982 16.06C196.982 17.0467 196.608 17.82 195.862 18.38C195.115 18.9267 194.128 19.2 192.902 19.2Z" fill="white"/>
<path d="M16.7548 9.29015V20.8343L21 18.3166V6.77238L11.2677 1L7.02252 3.51777L16.7548 9.29015Z" fill="url(#paint0_linear_8017_101)"/>
<path d="M9.73232 13.4553V25L13.9769 22.4822V10.9375L4.24514 5.1651L0 7.68287L9.73232 13.4553Z" fill="url(#paint1_linear_8017_101)"/>
<path d="M0 7.68287V19.2276L4.24514 16.7099V5.1651L0 7.68287Z" fill="url(#paint2_linear_8017_101)"/>
<path d="M0 7.68286L4.24514 10.2006V12.1964L0 7.68286Z" fill="url(#paint3_linear_8017_101)"/>
<defs>
<linearGradient id="paint0_linear_8017_101" x1="6.80206" y1="17.1154" x2="20.349" y2="17.102" gradientUnits="userSpaceOnUse">
<stop stop-color="#B882FA"/>
<stop offset="1" stop-color="#7C68FC"/>
</linearGradient>
<linearGradient id="paint1_linear_8017_101" x1="-0.220456" y1="21.281" x2="13.3259" y2="21.2676" gradientUnits="userSpaceOnUse">
<stop stop-color="#B882FA"/>
<stop offset="1" stop-color="#7C68FC"/>
</linearGradient>
<linearGradient id="paint2_linear_8017_101" x1="-0.0669581" y1="16.5909" x2="4.04742" y2="16.5892" gradientUnits="userSpaceOnUse">
<stop stop-color="#B882FA"/>
<stop offset="1" stop-color="#7C68FC"/>
</linearGradient>
<linearGradient id="paint3_linear_8017_101" x1="-0.0669581" y1="11.3501" x2="4.04741" y2="11.3447" gradientUnits="userSpaceOnUse">
<stop stop-color="#B882FA"/>
<stop offset="1" stop-color="#7C68FC"/>
</linearGradient>
</defs>
</svg>
