<svg width="23" height="23" viewBox="0 0 23 23" fill="none" xmlns="http://www.w3.org/2000/svg">
<circle cx="12.2188" cy="12.2188" r="6.46875" fill="white"/>
<path d="M7.94546 23L5.95909 19.4952L2.19545 18.619L2.56136 14.5667L0 11.5L2.56136 8.43333L2.19545 4.38095L5.95909 3.50476L7.94546 0L11.5 1.5881L15.0545 0L17.0409 3.50476L20.8045 4.38095L20.4386 8.43333L23 11.5L20.4386 14.5667L20.8045 18.619L17.0409 19.4952L15.0545 23L11.5 21.4119L7.94546 23ZM10.4023 15.3881L16.3091 9.2L14.8455 7.6119L10.4023 12.2667L8.15455 9.96667L6.69091 11.5L10.4023 15.3881Z" fill="#3897F0"/>
</svg>
